<?xml version="1.0" standalone="no"?>
<!DOCTYPE svg PUBLIC "-//W3C//DTD SVG 1.1//EN" "http://www.w3.org/Graphics/SVG/1.1/DTD/svg11.dtd" >
<!--
2019-7-24: Created with FontForge (http://fontforge.org)
-->
<svg xmlns="http://www.w3.org/2000/svg" xmlns:xlink="http://www.w3.org/1999/xlink" version="1.1">
<metadata>
Created by FontForge 20170731 at Wed Jul 24 13:14:06 2019
 By root

</metadata>
<defs>
<font id="Flaticon" horiz-adv-x="512" >
  <font-face 
    font-family="Flaticon"
    font-weight="400"
    font-stretch="normal"
    units-per-em="512"
    panose-1="2 0 5 3 0 0 0 0 0 0"
    ascent="448"
    descent="-64"
    bbox="-0.0012207 -65.5027 513.002 448.002"
    underline-thickness="25.6"
    underline-position="-51.2"
    unicode-range="U+0020-F1A0"
  />
    <missing-glyph />
    <glyph glyph-name="space" unicode=" " horiz-adv-x="200" 
 />
    <glyph glyph-name="024-instagram-logo" unicode="&#xf117;" 
d="M255.989 140.751c-28.2539 0 -51.2598 22.9951 -51.2285 51.2598c0.0107422 11.1572 3.62988 21.458 9.69336 29.873c9.33203 12.9102 24.459 21.3652 41.5664 21.3652c17.0967 0 32.2344 -8.46582 41.5459 -21.376c6.04297 -8.41406 9.69336 -18.7158 9.69336 -29.873
c0 -28.2646 -23.0264 -51.249 -51.2705 -51.249zM367.903 254.695l-49.1973 -0.165039l-0.165039 49.3623l42.9385 0.134766l6.42383 0.0205078v-6.39355v-42.959zM256 448c141.168 0 256 -114.842 256 -256c0 -141.147 -114.853 -256 -256 -256
c-141.158 0 -256 114.853 -256 256c0 141.158 114.842 256 256 256zM401.592 221.873v59.4375c0 31.0381 -25.2432 56.2715 -56.2812 56.2715h-178.631c-31.0391 0 -56.2715 -25.2334 -56.2715 -56.2715v-59.4375v-119.204c0 -31.0488 25.2324 -56.2812 56.2715 -56.2812
h178.641c31.0283 0 56.2715 25.2324 56.2715 56.2812v119.204zM335.638 192c0 10.5596 -2.13477 20.6543 -5.91895 29.873h43.4844v-119.204c0 -15.4053 -12.5283 -27.8828 -27.9033 -27.8828h-178.631c-15.3955 0 -27.9033 12.4775 -27.9033 27.8828v119.204h43.4639
c-3.75293 -9.21875 -5.85742 -19.3135 -5.85742 -29.873c0 -43.8975 35.71 -79.6377 79.6279 -79.6377s79.6377 35.7402 79.6377 79.6377z" />
    <glyph glyph-name="144-scanner" unicode="&#xf18f;" 
d="M407 177c57.8984 0 105 -47.1016 105 -105v-60c0 -8.28516 -6.71875 -15 -15 -15h-15v-46c0 -8.28516 -6.71875 -15 -15 -15h-422c-8.28516 0 -15 6.71484 -15 15v46.0078h-15c-8.33203 0 -15 6.75 -15 14.9922v150c0 24.8125 20.1875 45 45 45
c3.43359 0 6.77344 -0.398438 9.98828 -1.13281l342.414 239.426c6.78906 4.74609 16.1445 3.09375 20.8906 -3.69922c4.74609 -6.78906 3.08984 -16.1406 -3.69922 -20.8867l-332.871 -232.75c2.37109 -3.34375 4.30078 -7.02344 5.69531 -10.957h319.582zM45 177
c-8.26953 0 -15 -6.73047 -15 -15s6.73047 -15 15 -15s15 6.73047 15 15s-6.73047 15 -15 15zM452 -34v31.0117l-392 -0.00390625v-31.0078h392zM482 27v45c0 41.3555 -33.6445 75 -75 75h-319.582c-6.19141 -17.457 -22.8633 -30 -42.418 -30
c-5.25781 0 -10.3047 0.914062 -15 2.57812v-92.5781h452zM482 27zM75 117c8.28516 0 15 -6.71484 15 -15v-30c0 -8.28516 -6.71484 -15 -15 -15s-15 6.71484 -15 15v30c0 8.28516 6.71484 15 15 15zM75 117zM135 117c8.28516 0 15 -6.71484 15 -15v-30
c0 -8.28516 -6.71484 -15 -15 -15s-15 6.71484 -15 15v30c0 8.28516 6.71484 15 15 15zM135 117zM271 282c0 8.28516 6.71484 15 15 15s15 -6.71484 15 -15v-60c0 -8.28516 -6.71484 -15 -15 -15s-15 6.71484 -15 15v60zM271 282zM331 282c0 8.28516 6.71484 15 15 15
c8.28125 0 15 -6.71484 15 -15v-60c0 -8.28516 -6.71875 -15 -15 -15c-8.28516 0 -15 6.71484 -15 15v60zM331 282zM406 297c8.28516 0 15 -6.71484 15 -15v-60c0 -8.28516 -6.71875 -15 -15 -15c-8.28516 0 -15 6.71484 -15 15v60c0 8.28516 6.71484 15 15 15zM406 297z
" />
    <glyph glyph-name="044-warning" unicode="&#xf12b;" 
d="M255.993 97.1172c14.4189 0 26.3125 -11.8936 25.6807 -26.9443c0.631836 -13.6826 -11.8926 -25.6807 -25.6807 -25.6807c-14.3135 0 -26.3125 11.998 -26.3125 26.3125c0 14.3135 11.999 26.3125 26.3125 26.3125zM499.541 3.86621
c-16.6299 -28.7334 -46.2051 -45.8887 -79.1484 -45.8887h-329.22c-32.8379 0 -62.2031 16.9443 -78.6221 45.1514c-16.6289 28.5225 -16.7344 62.7295 -0.31543 91.4619l165.031 285.753c16.3135 28.5225 45.7832 45.6777 78.832 45.6777
c33.0479 0 62.5176 -17.0498 78.832 -45.7832l164.82 -285.437c16.4189 -28.418 16.3135 -62.4131 -0.209961 -90.9355zM463.756 24.4951c9.05176 15.6816 9.15625 34.2061 0.31543 49.5723l-164.926 285.647c-8.94629 15.6816 -25.0498 25.0488 -43.0469 25.0488
c-18.1035 0 -34.1006 -9.26172 -43.0469 -24.9434l-165.031 -285.647c-9.05176 -15.7881 -8.94629 -34.5225 0.104492 -50.2041c8.94629 -15.4717 25.0498 -24.6289 42.9424 -24.6289h329.221c18.1025 0 34.3105 9.36719 43.4678 25.1553zM249.468 281.83
c12.5244 2.94727 25.0488 -3.05273 30.417 -14.8398c1.78906 -4.21094 2.4209 -8.4209 2.4209 -13.1562c-0.631836 -13.1562 -1.78906 -26.3125 -2.4209 -39.4688c-1.15723 -20.3135 -2.4209 -40.627 -3.57812 -60.9395
c-0.631836 -6.63086 -0.631836 -12.6299 -0.631836 -19.1553c-0.526367 -10.8408 -8.94629 -19.1562 -19.6816 -19.1562s-19.0498 7.78906 -19.6816 18.5244c-1.78906 31.6797 -3.57812 62.7285 -5.36816 94.4092c-0.630859 8.31445 -1.15723 16.7344 -1.78906 25.0488
c0 13.7881 7.78906 25.1543 20.3135 28.7334z" />
    <glyph glyph-name="023-cube-with-arrows" unicode="&#xf116;" 
d="M511.06 29.6943c1.25293 -3.02246 1.25293 -6.41992 0.00195312 -9.44336c-1.25391 -3.02344 -3.6543 -5.4248 -6.67578 -6.67578l-46.3672 -19.2197c-1.54492 -0.640625 -3.14355 -0.944336 -4.71875 -0.944336c-4.83691 0 -9.42969 2.86523 -11.3975 7.61719
c-2.60645 6.29102 0.37793 13.5059 6.66992 16.1162l18.8594 7.81738l-44.3525 18.3564l-162.86 -59.3301s-2.28516 -0.745117 -4.20117 -0.745117s-4.23633 0.745117 -4.23633 0.745117l-162.86 59.3301l-44.3525 -18.3564l18.8574 -7.81738
c6.29492 -2.61035 9.28027 -9.82715 6.6709 -16.1162c-1.9668 -4.75293 -6.56055 -7.61719 -11.3984 -7.61719c-1.57324 0 -3.17285 0.303711 -4.7168 0.944336l-46.3672 19.2197c-3.02246 1.25098 -5.42285 3.6543 -6.67578 6.67578
c-1.25098 3.02246 -1.25098 6.4209 0.00390625 9.44336l19.2217 46.3633c2.6084 6.29297 9.82031 9.28125 16.1191 6.6709c6.29102 -2.60938 9.27734 -9.8252 6.66797 -16.1201l-7.81738 -18.8564l41.6836 17.25v183.833c0 5.18359 3.24023 9.81543 8.11328 11.5898
l158.736 57.8291v40.3955l-14.4346 -14.4365c-4.81934 -4.81738 -12.6299 -4.81445 -17.4463 0c-4.81543 4.81836 -4.81543 12.626 0 17.4414l35.4941 35.4922c4.81836 4.81738 12.624 4.81543 17.4414 0l35.4932 -35.4922c4.81738 -4.81543 4.81738 -12.623 0 -17.4414
c-2.41016 -2.40723 -5.56738 -3.6123 -8.72168 -3.6123c-3.1582 0 -6.31543 1.2041 -8.72363 3.6123l-14.4355 14.4365v-40.3955l158.737 -57.8281c4.875 -1.77441 8.11328 -6.40527 8.11328 -11.5898v-183.834l41.6846 -17.25l-7.81738 18.8564
c-2.60938 6.29785 0.37793 13.5107 6.66602 16.1201c6.2959 2.60645 13.5107 -0.380859 16.1211 -6.6709zM243.666 13.1934v93.1465l-121.008 -49.0674zM243.666 132.939v39.4971l-142.182 57.3838v-154.269zM243.666 199.035v92.9629l-121.056 -44.1006zM268.334 291.998
v-92.9629l121.057 48.8623zM268.334 13.1934l121.008 44.0791l-121.008 49.0674v-93.1465zM410.514 75.5518h0.00292969v154.268l-142.183 -57.3838v-39.4961z" />
    <glyph glyph-name="014-facebook-black-social-button-circle" unicode="&#xf10d;" 
d="M512 192c0 -141.382 -114.618 -256 -256 -256s-256 114.618 -256 256s114.618 256 256 256s256 -114.618 256 -256zM187.252 192h30.0215v-147.758h48.5713v147.758h48.7559l7.70215 48.9893h-56.459v24.5293c0 12.7773 4.16602 24.9717 22.5283 24.9717h36.6309v48.873
h-52.0371c-43.7529 0 -55.6924 -28.7881 -55.6924 -68.748v-29.626h-30.0215v-48.9893z" />
    <glyph glyph-name="124-app-development" unicode="&#xf17b;" 
d="M362.578 207h-32.5781v-120h32.5781c6.19531 17.457 22.8672 30 42.4219 30h62c24.8125 0 45 -20.1875 45 -45s-20.1875 -45 -45 -45h-62c-19.5547 0 -36.2266 12.543 -42.4219 30h-32.5781v-76c0 -24.8125 -20.1875 -45 -45 -45h-240c-24.8125 0 -45 20.1875 -45 45v422
c0 24.8125 20.1875 45 45 45h240c24.8125 0 45 -20.1875 45 -45v-166h32.5781c6.19531 17.457 22.8672 30 42.4219 30h62c24.8125 0 45 -20.1875 45 -45s-20.1875 -45 -45 -45h-62c-19.5547 0 -36.2266 12.543 -42.4219 30zM405 237c-8.26953 0 -15 -6.73047 -15 -15
s6.73047 -15 15 -15h62c8.26953 0 15 6.73047 15 15s-6.73047 15 -15 15h-62zM300 -19v15h-270v-15c0 -8.26953 6.73047 -15 15 -15h240c8.26953 0 15 6.73047 15 15zM300 237v121h-270v-332h270v31h-15c-8.28516 0 -15 6.71484 -15 15s6.71484 15 15 15h15v120h-31.0742
c-7.35547 -51.1719 -51.4727 -90 -103.926 -90c-57.9844 0 -105 47.1992 -105 105c0 57.8984 47.1016 105 105 105c52.8047 0 96.6211 -39.1836 103.926 -90h31.0742zM165 177c-15.2266 0 -29.1719 -7.71094 -37.3984 -19.9688
c11.0156 -6.36719 23.7852 -10.0312 37.3984 -10.0312s26.3828 3.66406 37.3984 10.0312c-8.22656 12.2578 -22.1719 19.9688 -37.3984 19.9688zM150 222c0 -8.26953 6.73047 -15 15 -15s15 6.73047 15 15s-6.73047 15 -15 15s-15 -6.73047 -15 -15zM202.383 196.98
c8.75781 -5.03906 16.4648 -11.8125 22.5938 -19.957c9.42578 12.5391 15.0234 28.1172 15.0234 44.9766c0 41.3555 -33.6445 75 -75 75s-75 -33.6445 -75 -75c0 -16.8594 5.59766 -32.4375 15.0234 -44.9766c6.12891 8.14062 13.8359 14.918 22.5938 19.957
c-4.80859 7.16016 -7.61719 15.7656 -7.61719 25.0195c0 24.8125 20.1875 45 45 45s45 -20.1875 45 -45c0 -9.25391 -2.80859 -17.8594 -7.61719 -25.0195zM300 388v15c0 8.26953 -6.73047 15 -15 15h-240c-8.26953 0 -15 -6.73047 -15 -15v-15h270zM405 87
c-8.26953 0 -15 -6.73047 -15 -15s6.73047 -15 15 -15h62c8.26953 0 15 6.73047 15 15s-6.73047 15 -15 15h-62zM405 87zM180 72c0 -8.28516 -6.71484 -15 -15 -15s-15 6.71484 -15 15s6.71484 15 15 15s15 -6.71484 15 -15zM180 72zM240 72
c0 -8.28516 -6.71484 -15 -15 -15s-15 6.71484 -15 15s6.71484 15 15 15s15 -6.71484 15 -15zM240 72zM120 72c0 -8.28516 -6.71484 -15 -15 -15s-15 6.71484 -15 15s6.71484 15 15 15s15 -6.71484 15 -15zM120 72z" />
    <glyph glyph-name="046-menu-3" unicode="&#xf12d;" 
d="M483.062 380.404c15.9551 0 28.9375 -12.9834 28.9375 -28.9375v-41.9512c0 -15.957 -12.9824 -28.9395 -28.9375 -28.9395h-454.125c-15.9551 0 -28.9375 12.9824 -28.9375 28.9395v41.9512c0 15.9541 12.9824 28.9375 28.9375 28.9375h454.125zM483.062 241.914
c15.9551 0 28.9375 -12.9824 28.9375 -28.9375v-41.9531c0 -15.9551 -12.9824 -28.9375 -28.9375 -28.9375h-454.125c-15.9551 0 -28.9375 12.9824 -28.9375 28.9375v41.9531c0 15.9551 12.9824 28.9375 28.9375 28.9375h454.125zM483.062 103.424
c15.9551 0 28.9375 -12.9805 28.9375 -28.9395v-41.9512c0 -15.9541 -12.9824 -28.9375 -28.9375 -28.9375h-454.125c-15.9551 0 -28.9375 12.9834 -28.9375 28.9375v41.9512c0 15.959 12.9824 28.9395 28.9375 28.9395h454.125z" />
    <glyph glyph-name="153-periscope" unicode="&#xf198;" 
d="M256 448c141.387 0 256 -114.613 256 -256s-114.613 -256 -256 -256s-256 114.613 -256 256s114.613 256 256 256zM257.879 31.5742c25.4297 0 125.781 112.809 125.777 188.414c0 72.3633 -57.1719 132.438 -125.777 132.438
c-72.1953 0 -129.367 -60.0742 -129.367 -132.438c0 -75.6055 100.352 -188.414 129.367 -188.414zM257.879 31.5742zM258.219 302.078c40.4492 0 75.0938 -33.7891 75.0938 -77.4805c0 -39.4219 -34.6445 -73.2148 -75.0938 -73.2148
c-44.8867 0 -79.5312 33.793 -79.5312 73.2148c0 16.7266 5.12109 31.9141 13.8242 44.375c2.73047 -13.9961 15.1914 -24.5781 30.3789 -24.5781c17.0664 0 30.8906 13.4844 30.8906 30.207c0 10.7539 -5.80078 20.1406 -14.5078 25.4297
c5.97266 1.36719 12.2891 2.04688 18.9453 2.04688zM258.219 302.078z" />
    <glyph glyph-name="112-folder" unicode="&#xf16f;" 
d="M482 264.42c17.459 -6.19238 30 -22.8652 30 -42.4199v-241c0 -24.8135 -20.1865 -45 -45 -45h-422c-24.8135 0 -45 20.1865 -45 45v301c0 24.8135 20.1865 45 45 45h15v106c0 8.28418 6.71582 15 15 15h242c0.0791016 0 0.155273 -0.00976562 0.233398 -0.0117188
c3.98633 -0.0644531 7.69531 -1.71094 10.3604 -4.37012c0.00488281 -0.00488281 0.00976562 -0.00878906 0.015625 -0.0146484l89.9941 -89.9941c0.00585938 -0.00585938 0.00976562 -0.0107422 0.0146484 -0.015625c2.78027 -2.78711 4.38184 -6.66016 4.38184 -10.5938
v-15h15c24.8135 0 45 -20.1865 45 -45v-18.5801zM422 298v-30h30v15c0 8.27148 -6.72852 15 -15 15h-15zM332 396.787v-38.7871h38.7871zM90 418v-91h26.459c17.1543 0 32.5771 -9.53223 40.249 -24.875l17.5635 -35.125h217.729v46v15h-75c-8.28418 0 -15 6.71582 -15 15
v75h-212zM482 -19v241c0 8.27148 -6.72852 15 -15 15h-302c-5.68164 0 -10.876 3.20996 -13.416 8.29102l-21.708 43.417c-2.55762 5.11523 -7.69824 8.29199 -13.417 8.29199h-71.459c-8.27148 0 -15 -6.72852 -15 -15v-301c0 -8.27148 6.72852 -15 15 -15h422
c8.27148 0 15 6.72852 15 15zM437 177c8.28418 0 15 -6.71582 15 -15s-6.71582 -15 -15 -15h-90c-8.28418 0 -15 6.71582 -15 15s6.71582 15 15 15h90zM437 116c8.28418 0 15 -6.71582 15 -15s-6.71582 -15 -15 -15h-90c-8.28418 0 -15 6.71582 -15 15s6.71582 15 15 15h90z
" />
    <glyph glyph-name="061-mobile-chat" unicode="&#xf13c;" 
d="M384 448c17.6641 0 32 -14.3682 32 -32v-448c0 -17.6318 -14.3359 -32 -32 -32h-288c-17.6641 0 -32 14.3682 -32 32v448c0 17.6318 14.3359 32 32 32h288zM384 -32v32h-288v-32h288zM384 32v320h-288v-320h288zM384 384v32h-288v-32h288zM336 320
c8.83203 0 16 -7.16797 16 -16v-64c0 -8.83203 -7.16797 -16 -16 -16h-141.408l-45.5361 -15.168c-1.66406 -0.576172 -3.35938 -0.832031 -5.05566 -0.832031c-3.32812 0 -6.5918 1.02441 -9.34375 3.00781c-4.19238 3.00781 -6.65625 7.83984 -6.65625 12.9922v80
c0 8.83203 7.16797 16 16 16h192zM320 256v32h-160v-41.792l26.9443 8.95996c1.63184 0.543945 3.32812 0.832031 5.05566 0.832031h128zM336 192c8.83203 0 16 -7.16797 16 -16v-80c0 -5.15234 -2.46387 -9.98438 -6.65625 -12.9922
c-2.75195 -1.9834 -6.01562 -3.00781 -9.34375 -3.00781c-1.69629 0 -3.3916 0.255859 -5.05566 0.832031l-45.5361 15.168h-141.408c-8.83203 0 -16 7.16797 -16 16v64c0 8.83203 7.16797 16 16 16h192zM320 118.208v41.792h-160v-32h128
c1.72754 0 3.42383 -0.288086 5.05566 -0.832031z" />
    <glyph glyph-name="077-soundcloud" unicode="&#xf14c;" 
d="M432 208c44.1279 0 80 -35.9043 80 -80c0 -44.1279 -35.8721 -80 -80 -80h-160c-8.83203 0 -16 7.16797 -16 16v256c0 8.83203 7.16797 16 16 16c74.5918 0 136.128 -57.0244 143.328 -129.76c5.37598 1.15137 10.9756 1.75977 16.6719 1.75977zM208 304
c8.83203 0 16 -7.16797 16 -16v-224c0 -8.83203 -7.16797 -16 -16 -16s-16 7.16797 -16 16v224c0 8.83203 7.16797 16 16 16zM144 240c8.83203 0 16 -7.16797 16 -16v-160c0 -8.83203 -7.16797 -16 -16 -16s-16 7.16797 -16 16v160c0 8.83203 7.16797 16 16 16zM80 240
c8.83203 0 16 -7.16797 16 -16v-160c0 -8.83203 -7.16797 -16 -16 -16s-16 7.16797 -16 16v160c0 8.83203 7.16797 16 16 16zM16 192c8.83203 0 16 -7.16797 16 -16v-96c0 -8.83203 -7.16797 -16 -16 -16s-16 7.16797 -16 16v96c0 8.83203 7.16797 16 16 16z" />
    <glyph glyph-name="149-whatsapp-1" unicode="&#xf194;" 
d="M256 448c141.363 0 256 -114.637 256 -256s-114.637 -256 -256 -256s-256 114.637 -256 256s114.637 256 256 256zM261.426 42.9492c84.4414 0 153.184 68.7148 153.219 153.172c0.015625 40.9258 -15.9062 79.4102 -44.8359 108.363
c-28.9258 28.9492 -67.3984 44.9023 -108.383 44.918c-84.4531 0 -153.188 -68.707 -153.223 -153.16c-0.0117188 -26.9961 7.04297 -53.3477 20.4531 -76.5742l-21.7383 -79.375l81.2227 21.3008c22.3789 -12.2031 47.5781 -18.6328 73.2227 -18.6445h0.0625
c0.00390625 0 -0.00390625 0 0 0zM261.426 42.9492zM261.477 323.531c34.0117 -0.0117188 65.9883 -13.2734 90.0312 -37.3359s37.2773 -56.0469 37.2656 -90.0664c-0.03125 -70.1992 -57.1602 -127.309 -127.352 -127.309h-0.0507812
c-22.8516 0.0078125 -45.2656 6.14453 -64.8164 17.7461l-4.65234 2.75781l-48.1992 -12.6406l12.8672 46.9805l-3.02734 4.81641c-12.7461 20.2695 -19.4805 43.6953 -19.4727 67.75c0.03125 70.1953 57.1602 127.301 127.406 127.301zM336.383 141.496
c3.19141 8.94141 3.19141 16.6016 2.23047 18.1992c-0.957031 1.59766 -3.50781 2.55469 -7.33594 4.47266c-3.82812 1.91406 -22.6484 11.1758 -26.1602 12.4492c-3.50781 1.27734 -6.0625 1.91797 -8.61328 -1.91406s-9.89062 -12.4531 -12.1211 -15.0078
c-2.23438 -2.55078 -4.46875 -2.87109 -8.29297 -0.957031c-3.82812 1.91797 -16.1641 5.95703 -30.7891 18.9961c-11.3789 10.1484 -19.0664 22.6836 -21.2969 26.5117c-2.23438 3.83203 -0.0195312 5.70703 1.67969 7.8125
c4.05078 5.02344 8.29297 10.5352 9.57031 13.0898c1.27344 2.55469 0.636719 4.78906 -0.320312 6.70703c-0.957031 1.91406 -8.61328 20.75 -11.8047 28.4141c-3.10547 7.46484 -6.26172 6.45312 -8.61328 6.57031c-2.23047 0.109375 -4.78516 0.132812 -7.33594 0.132812
s-6.69922 -0.957031 -10.2109 -4.78906c-3.50781 -3.82812 -13.3984 -13.0898 -13.3984 -31.9258c0 -18.8398 13.7188 -37.0391 15.6328 -39.5938s26.9961 -41.2109 65.3984 -57.7891c9.13672 -3.94141 16.2656 -6.29688 21.8281 -8.0625
c9.17188 -2.91016 17.5156 -2.5 24.1133 -1.51562c7.35547 1.10156 22.6484 9.26172 25.8398 18.1992zM336.383 141.496z" />
    <glyph glyph-name="034-play-button" unicode="&#xf121;" 
d="M256 448c141.383 0 256 -114.615 256 -256s-114.617 -256 -256 -256s-256 114.615 -256 256s114.617 256 256 256zM344.48 178.43c4.67578 2.92969 7.51953 8.05566 7.51953 13.5703s-2.84375 10.6396 -7.51953 13.5703l-128 80
c-4.93359 3.08594 -11.1523 3.25781 -16.2383 0.421875c-5.08594 -2.82031 -8.24219 -8.17188 -8.24219 -13.9922v-160c0 -5.82031 3.15625 -11.1719 8.24219 -13.9922c2.41797 -1.34375 5.08984 -2.00781 7.75781 -2.00781c2.94531 0 5.88965 0.813477 8.48047 2.42969z
" />
    <glyph glyph-name="037-right-arrow" unicode="&#xf124;" 
d="M371.578 332.422l140.422 -140.421l-140.422 -140.423l-22.8066 22.8076l101.487 101.486h-450.259v32.2549h450.259l-101.487 101.487z" />
    <glyph glyph-name="047-target" unicode="&#xf12e;" 
d="M449.596 326.222l-41.2217 4.58105l-9.69043 -9.68945c32.7363 -35.79 53.4639 -82.7305 55.7598 -134.385h18.2197c5.2998 0 9.59668 -4.29688 9.59668 -9.59668s-4.29688 -9.59668 -9.59668 -9.59668h-18.2197c-4.89746 -110.126 -93.5918 -198.82 -203.717 -203.716
v-18.2207c0 -5.2998 -4.29688 -9.59668 -9.59668 -9.59668s-9.59668 4.29688 -9.59668 9.59668v18.2207c-110.125 4.89648 -198.819 93.5898 -203.716 203.716h-18.2207c-5.2998 0 -9.59668 4.29688 -9.59668 9.59668s4.29688 9.59668 9.59668 9.59668h18.2207
c4.89648 110.127 93.5908 198.82 203.716 203.717v18.2197c0 5.2998 4.29688 9.59668 9.59668 9.59668s9.59668 -4.29688 9.59668 -9.59668v-18.2227c51.6543 -2.2959 98.5947 -23.0234 134.383 -55.7607l9.68945 9.69043l-4.58008 41.2227
c-0.322266 2.89844 0.691406 5.78613 2.75195 7.84766l51.7461 51.7461c2.63379 2.63281 6.55176 3.50488 10.0547 2.23633c3.50098 -1.2666 5.95312 -4.44629 6.28906 -8.15332l3.51953 -38.6914l38.6914 -3.5166c3.70703 -0.337891 6.88672 -2.78906 8.1543 -6.29102
c1.26855 -3.50293 0.395508 -7.4209 -2.23633 -10.0537l-51.7461 -51.7451c-1.81055 -1.80859 -4.25684 -2.81055 -6.78516 -2.81055c-0.353516 0 -0.707031 0.0185547 -1.0625 0.0585938zM443.802 417.127l-33.9951 -33.9961l3.73242 -33.5918l33.5918 -3.73242
l33.9961 33.9951l-26.25 2.38672c-4.61426 0.419922 -8.26758 4.07422 -8.6875 8.68848zM435.236 186.729c-2.2666 46.3652 -20.8545 88.5137 -50.1299 120.807l-28.8789 -28.8779c23.917 -27.085 38.457 -62.6377 38.457 -101.526
c0 -84.6719 -68.8848 -153.556 -153.556 -153.556s-153.556 68.8838 -153.556 153.556s68.8848 153.556 153.556 153.556c38.8896 0 74.4424 -14.5391 101.525 -38.459l28.8779 28.8789c-32.292 29.2744 -74.4395 47.8633 -120.806 50.1299v-13.5205
c0 -5.2998 -4.29688 -9.59668 -9.59668 -9.59668s-9.59668 4.29688 -9.59668 9.59668v13.5205c-99.541 -4.86426 -179.644 -84.9688 -184.508 -184.509h13.5205c5.2998 0 9.59668 -4.29688 9.59668 -9.59668s-4.29688 -9.59668 -9.59668 -9.59668h-13.5205
c4.86426 -99.54 84.9668 -179.645 184.509 -184.507v13.5195c0 5.2998 4.29688 9.59668 9.59668 9.59668s9.59668 -4.29688 9.59668 -9.59668v-13.5195c99.541 4.86328 179.644 84.9658 184.509 184.508h-13.5215c-5.2998 0 -9.59668 4.29688 -9.59668 9.59668
s4.29688 9.59668 9.59668 9.59668h13.5215zM234.344 170.345c-3.74707 3.74805 -3.74707 9.82422 -0.000976562 13.5732l52.1201 52.1201c-12.5605 9.6875 -28.2812 15.4717 -45.334 15.4717c-41.0127 0 -74.3789 -33.3662 -74.3789 -74.3789
s33.3662 -74.3789 74.3789 -74.3789s74.3789 33.3662 74.3789 74.3789c0 17.0527 -5.78418 32.7744 -15.4717 45.334l-52.1201 -52.1201c-1.87305 -1.87402 -4.33008 -2.81055 -6.78613 -2.81055s-4.91113 0.936523 -6.78613 2.81055zM241.131 270.703
c22.3496 0 42.8838 -7.88477 58.9951 -21.0059l28.9424 28.9424c-23.583 20.457 -54.3408 32.8535 -87.9365 32.8535c-74.0869 0 -134.36 -60.2754 -134.36 -134.362s60.2734 -134.361 134.36 -134.361s134.361 60.2744 134.361 134.361
c0 33.5967 -12.3965 64.3525 -32.8535 87.9355l-28.9414 -28.9424c13.1211 -16.1104 21.0059 -36.6465 21.0059 -58.9941c0 -51.5957 -41.9766 -93.5732 -93.5732 -93.5732s-93.5732 41.9775 -93.5732 93.5732s41.9766 93.5732 93.5732 93.5732z" />
    <glyph glyph-name="091-potential" unicode="&#xf15a;" 
d="M295 216h40l0.00292969 -280h-40v40h-80v-40h-40l-0.00292969 280h40v-40h80v40zM215.001 136v-40h80v40h-80zM295.002 16v40h-80v-40h80zM416.942 290.338c53.4004 -5.95801 95.0576 -51.375 95.0576 -106.338c0 -59 -48 -107 -107 -107
c-0.219727 0 -0.439453 0.00292969 -0.658203 0.00683594h-28.3418v40h28.5488l0.478516 -0.00585938c36.9316 0.0136719 66.9727 30.0645 66.9727 66.999c0 36.9443 -30.0557 67 -67 67h-28v35c0 67.2715 -54.7285 122 -122 122
c-62.7852 0 -114.956 -47.0215 -121.354 -109.375l-1.7002 -16.5664l-16.6006 -1.32812c-42.25 -3.38184 -75.3457 -39.2822 -75.3457 -81.7305c0 -45.1885 36.7363 -81.9551 81.9131 -82l0.352539 0.00292969h12.7334l0.00195312 -40l-13.001 -0.00292969
c-67.2715 0 -122 54.7285 -122 122c0 30.8672 11.5537 60.3232 32.5332 82.9424c17.1719 18.5137 39.3691 31.0918 63.6865 36.3213c6.80664 33.6406 24.1885 64.3447 49.9111 87.7012c29.8525 27.1074 68.5166 42.0352 108.869 42.0352
c87.877 0 159.636 -70.332 161.942 -157.662z" />
    <glyph glyph-name="133-usability" unicode="&#xf184;" 
d="M45 238c-24.8125 0 -45 20.1875 -45 45s20.1875 45 45 45c10.8711 0 20.8555 -3.87891 28.6445 -10.3203l50.6562 30.3945c-2.80078 7.90625 -4.30078 16.3203 -4.30078 24.9258c0 41.3555 33.6445 75 75 75c39.4102 0 71.7969 -30.5625 74.7578 -69.2266
l125.02 -15.6289c7.40625 14.7227 22.6484 24.8555 40.2227 24.8555c24.8125 0 45 -20.1875 45 -45s-20.1875 -45 -45 -45c-21.5117 0 -39.5312 15.1758 -43.9531 35.3789l-125.02 15.625c-4.82422 -14.2227 -13.8633 -26.8398 -26.0273 -35.9922v-17.5898
c4.69531 1.66406 9.74219 2.57812 15 2.57812c11.5156 0 22.0312 -4.34766 30 -11.4844c7.96875 7.13672 18.4844 11.4844 30 11.4844c20.7227 0 38.2109 -14.0859 43.4141 -33.1797c5.13672 2.04297 10.7305 3.17969 16.5859 3.17969c24.8125 0 45 -20.1875 45 -45v-114.59
c0 -25.4805 -6.02344 -51 -17.4219 -73.7891c-0.464844 -1.24609 -12.5781 -21.8516 -12.5781 -49.9492v-33.6719c0 -8.28516 -6.71484 -15 -15 -15h-210c-8.28516 0 -15 6.71484 -15 15v24.7227c0 41.1992 -30.1914 58.9805 -38.0312 69.0977
c-14.168 14.1641 -21.9688 33 -21.9688 53.0312v95.1484c0 24.8125 20.1875 45 45 45c5.25781 0 10.3047 -0.914062 15 -2.57812v77.5898c-3.72656 2.80469 -7.16016 5.92969 -10.2695 9.33203l-50.6289 -30.375c0.585938 -2.90234 0.898438 -5.89844 0.898438 -8.96875
c0 -24.8125 -20.1875 -45 -45 -45zM435 358c-8.26953 0 -15 -6.73047 -15 -15s6.73047 -15 15 -15s15 6.73047 15 15s-6.73047 15 -15 15zM255 268c-8.26953 0 -15 -6.73047 -15 -15v-60c0 -8.28516 -6.71484 -15 -15 -15s-15 6.71484 -15 15v150
c0 6.72656 -4.44922 12.4297 -10.5586 14.3281l-5.10547 0.636719c-7.96484 -0.351562 -14.3359 -6.91797 -14.3359 -14.9648v-210c0 -8.28516 -6.71484 -15 -15 -15s-15 6.71484 -15 15v60c0 8.26953 -6.73047 15 -15 15s-15 -6.73047 -15 -15v-95.1484
c0 -12.0195 4.67969 -23.3203 13.1797 -31.8203c6.76953 -9.00391 46.8203 -34.5664 46.8203 -90.3086v-9.72266h180v18.6719c0 36.4883 15.0156 61.3906 15.7461 63.3633c9.32422 18.6484 14.2539 39.5273 14.2539 60.375v114.59c0 8.26953 -6.73047 15 -15 15
s-15 -6.73047 -15 -15v-60c0 -8.28516 -6.71484 -15 -15 -15s-15 6.71484 -15 15v90c0 8.26953 -6.73047 15 -15 15s-15 -6.73047 -15 -15v-60c0 -8.28516 -6.71484 -15 -15 -15s-15 6.71484 -15 15v60c0 8.26953 -6.73047 15 -15 15zM195 418
c-24.8125 0 -45 -20.1875 -45 -45c0 -5.16797 0.910156 -10.2188 2.59375 -14.9648c6.19922 17.4414 22.8633 29.9648 42.4062 29.9648c0.0742188 0 0.148438 -0.00390625 0.222656 -0.00390625c0.0742188 -0.00390625 0.144531 -0.00390625 0.21875 -0.0078125
c19.082 -0.183594 35.7109 -12.3672 41.9648 -29.9531c1.68359 4.74609 2.59375 9.79688 2.59375 14.9648c0 24.8125 -20.1875 45 -45 45zM45 298c-8.26953 0 -15 -6.73047 -15 -15s6.73047 -15 15 -15s15 6.73047 15 15s-6.73047 15 -15 15zM45 298z" />
    <glyph glyph-name="110-cube-1" unicode="&#xf16d;" 
d="M497 358h-15v-332h15c8.28418 0 15 -6.71582 15 -15v-60c0 -8.28418 -6.71582 -15 -15 -15h-60c-8.28418 0 -15 6.71582 -15 15v15h-332v-15c0 -8.28418 -6.71582 -15 -15 -15h-60c-8.28418 0 -15 6.71582 -15 15v60c0 8.28418 6.71582 15 15 15h15v332h-15
c-8.28418 0 -15 6.71582 -15 15v60c0 8.28418 6.71582 15 15 15h60c8.28418 0 15 -6.71582 15 -15v-15h332v15c0 8.28418 6.71582 15 15 15h60c8.28418 0 15 -6.71582 15 -15v-60c0 -8.28418 -6.71582 -15 -15 -15zM30 418v-30h30v30h-30zM60 -34v30h-30v-30h30zM422 11
c0 8.28418 6.71582 15 15 15h15v332h-15c-8.28418 0 -15 6.71582 -15 15v15h-332v-15c0 -8.28418 -6.71582 -15 -15 -15h-15v-332h15c8.28418 0 15 -6.71582 15 -15v-15h332v15zM482 -34v30h-30v-30h30zM452 388h30v30h-30v-30zM225 358c8.28418 0 15 -6.71582 15 -15v-120
c0 -8.28418 -6.71582 -15 -15 -15h-120c-8.28418 0 -15 6.71582 -15 15v120c0 8.28418 6.71582 15 15 15h120zM210 238v90h-90v-90h90zM420.416 229.708c2.3252 -4.65039 2.07715 -10.1719 -0.65625 -14.5938s-7.56152 -7.11426 -12.7598 -7.11426h-120
c-5.19824 0 -10.0264 2.69238 -12.7598 7.11426s-2.98145 9.94336 -0.65625 14.5938l60 120c2.54004 5.08203 7.73438 8.29199 13.416 8.29199s10.876 -3.20996 13.416 -8.29199zM311.27 238h71.459l-35.7285 71.459zM165 176c41.3555 0 75 -33.6445 75 -75
s-33.6445 -75 -75 -75s-75 33.6445 -75 75s33.6445 75 75 75zM165 56c24.8135 0 45 20.1865 45 45s-20.1865 45 -45 45s-45 -20.1865 -45 -45s20.1865 -45 45 -45zM407 176c8.28418 0 15 -6.71582 15 -15v-120c0 -8.28418 -6.71582 -15 -15 -15h-120
c-8.28418 0 -15 6.71582 -15 15v120c0 8.28418 6.71582 15 15 15h120zM392 56v90h-90v-90h90z" />
    <glyph glyph-name="052-scissors" unicode="&#xf133;" 
d="M356.037 98.5605c44.8174 0 81.2803 -36.4639 81.2803 -81.2812c0 -44.8184 -36.4619 -81.2803 -81.2803 -81.2803c-44.8174 0 -81.2793 36.4619 -81.2793 81.2803c0 14.7207 3.9541 28.5264 10.8232 40.4492l-7.92285 13.7246l43.3184 75.0283l27.8613 -48.2588
c2.375 0.209961 4.77246 0.337891 7.19922 0.337891zM356.037 -26.4854c24.1309 0 43.7656 19.6328 43.7656 43.7666c0 24.1328 -19.6328 43.7656 -43.7656 43.7656s-43.7656 -19.6328 -43.7656 -43.7656c0 -24.1338 19.6328 -43.7666 43.7656 -43.7666zM365.105 448
c35.8848 -20.7178 48.1816 -66.6055 27.4629 -102.49l-166.149 -287.78c6.86914 -11.9219 10.8232 -25.7295 10.8232 -40.4482c0 -44.8184 -36.4619 -81.2803 -81.2793 -81.2803c-44.8184 0 -81.2803 36.4619 -81.2803 81.2803c0 44.8174 36.4619 81.2793 81.2803 81.2793
c2.42773 0 4.82617 -0.12793 7.19922 -0.337891zM155.964 -26.4854c24.1318 0 43.7656 19.6328 43.7656 43.7666c0 24.1328 -19.6328 43.7656 -43.7656 43.7656s-43.7656 -19.6328 -43.7656 -43.7656c0 -24.1338 19.6328 -43.7666 43.7656 -43.7666zM146.896 448
l87.4473 -151.462l-43.3184 -75.0293l-71.5928 124.001c-20.7188 35.8848 -8.42188 81.7725 27.4639 102.49z" />
    <glyph glyph-name="120-responsive" unicode="&#xf177;" 
d="M467 448c24.8125 0 45 -20.1875 45 -45v-390c0 -24.8125 -20.1875 -45 -45 -45h-361c-8.28516 0 -15 6.71484 -15 15s6.71484 15 15 15h49.1875l20 60h-130.188c-24.8125 0 -45 20.1875 -45 45v300c0 24.8125 20.1875 45 45 45h422zM45 88h257v30h-272v-15
c0 -8.26953 6.73047 -15 15 -15zM186.812 -2h117.766c-1.66406 4.69531 -2.57812 9.74219 -2.57812 15v45h-95.1875zM482 13v15h-150v-15c0 -8.26953 6.73047 -15 15 -15h120c8.26953 0 15 6.73047 15 15zM482 58v150h-150v-150h150zM482 238v15
c0 8.26953 -6.73047 15 -15 15h-120c-8.26953 0 -15 -6.73047 -15 -15v-15h150zM482 295.422v107.578c0 8.26953 -6.73047 15 -15 15h-422c-8.26953 0 -15 -6.73047 -15 -15v-255h272v105c0 24.8125 20.1875 45 45 45h120c5.25781 0 10.3047 -0.914062 15 -2.57812z
M482 295.422z" />
    <glyph glyph-name="150-groupme" unicode="&#xf195;" 
d="M221.781 184.777v23.0781h-22.9531v23.5039h22.9531v21.793h-22.9531v23.5039h22.9531v23.0781h23.3789v-23.0781h21.6758v23.0781h23.375v-23.0781h22.9492v-23.5039h-22.9492v-21.793h22.9492v-23.5039h-22.9492v-23.0781h-23.3789v23.0781h-21.6719v-23.0781h-23.3789
zM245.16 253.152v-21.793h21.6758v21.793h-21.6758zM245.16 253.152zM360.137 177.039c3.77734 -2.5 5.25 -6.01953 5.11719 -9.69922c-0.296875 -5.41406 -2.02344 -7.91016 -2.02344 -7.91016s-30.8594 -58.4375 -104.129 -58.4375
c-1.01172 0 -2.01562 0.0117188 -3.01172 0.03125c-0.992188 -0.0195312 -1.99609 -0.03125 -3.01172 -0.03125c-73.2656 0 -104.125 58.4375 -104.125 58.4375s-2 3.80469 -2 7.90625c-0.125 2.96094 1.31641 7.20312 5.09375 9.70312
c2.10156 1.39062 4.08984 2.07812 5.92969 2.29297c8.82422 0.941406 13.9375 -4.83594 18.1406 -11.4297c4.64844 -7.28125 31.4336 -39.168 79.9727 -40.3867c48.543 1.21875 75.3359 33.1055 79.9766 40.3867c4.20312 6.59375 9.5 12.3789 18.1406 11.4297
c1.83984 -0.214844 3.82812 -0.902344 5.92969 -2.29297zM360.137 177.039zM256 448c141.363 0 256 -114.637 256 -256s-114.637 -256 -256 -256s-256 114.637 -256 256s114.637 256 256 256zM397.906 119.902v160.836c0 34.3828 -27.7266 62.2617 -61.9258 62.2617
h-159.961c-34.2031 0 -61.9258 -27.8789 -61.9258 -62.2617v-160.836c0 -34.3867 27.7227 -62.2617 61.9258 -62.2617h53.2383l26.4688 -42.6406l26.4688 42.6406h53.7852c34.1953 0 61.9258 27.875 61.9258 62.2617zM397.906 119.902z" />
    <glyph glyph-name="084-youtube" unicode="&#xf153;" 
d="M490.24 334.08c14.4639 -24.6719 21.7598 -67.168 21.7598 -142.016v-0.0966797v-0.160156c0 -74.4961 -7.2959 -117.312 -21.7275 -141.728c-13.8887 -24.7041 -28.9609 -29.1836 -59.6484 -31.2637c-30.6885 -1.76074 -107.776 -2.81641 -174.56 -2.81641
c-66.9121 0 -144.032 1.05566 -174.688 2.84766c-30.624 2.08008 -45.6963 6.56055 -59.7119 31.2646c-14.3037 24.416 -21.6641 67.2314 -21.6641 141.728v0.0644531v0.0957031v0.0957031c0 74.8164 7.36035 117.312 21.6641 141.984
c14.0156 24.7363 29.1201 29.248 59.7441 31.0078c30.624 2.04785 107.744 2.91211 174.656 2.91211c66.7832 0 143.871 -0.864258 174.527 -2.94434c30.6885 -1.72754 45.7598 -6.27148 59.6484 -30.9756zM192 96l160 96l-160 96v-192z" />
    <glyph glyph-name="125-inspiration" unicode="&#xf17c;" 
d="M74.9961 -64c-8.28516 0 -15 6.71484 -15 15v161.289c-48.7617 46.7188 -69.6016 114.09 -55.832 181.625c15.1172 74.1406 75.0117 134.324 149.039 149.75c122.777 25.5859 233.938 -65.3906 236.754 -186.027l57.5352 -86.3086
c2.38672 -3.57812 3.125 -8.01172 2.01953 -12.168c-1.10547 -4.16016 -3.94141 -7.64453 -7.79297 -9.56641l-51.7109 -25.8555v-50.7305c0 -24.8164 -20.1875 -45.0039 -45 -45.0039h-75.0039v-77.0039c0 -8.28516 -6.71484 -15 -15 -15h-180.008zM33.5586 287.918
c-12.0781 -59.2344 7.15234 -118.262 51.4414 -157.898c3.17969 -2.84766 4.99609 -6.91016 4.99609 -11.1797v-152.84h150.008v77.0039c0 8.28516 6.71484 15 15 15h90.0039c8.26953 0 15 6.73047 15 15.0039v60c0 5.68359 3.21094 10.8789 8.29297 13.418l44.8047 22.4023
l-50.5781 75.8672c-1.64453 2.46484 -2.51953 5.35938 -2.51953 8.32031c0 103.809 -94.9375 183.32 -200.684 161.281c-62.4648 -13.0195 -113.004 -63.8086 -125.766 -126.379zM33.5586 287.918zM225.004 118.008c8.28125 0 15 -6.71484 15 -15s-6.71875 -15 -15 -15
h-60.0039c-8.28516 0 -15 6.71484 -15 15s6.71484 15 15 15h60.0039zM225.004 118.008zM104.996 238.016c-8.28516 0 -15.0039 6.71484 -15.0039 15s6.71875 15 15.0039 15h16.4727c0.253906 1.30078 0.535156 2.60156 0.855469 3.90234
c1.99609 8.05859 5.44922 15.6641 10.0312 22.5273l-11.6055 11.6055c-5.85938 5.85938 -5.85938 15.3555 0 21.2148c5.85938 5.85547 15.3555 5.85547 21.2148 0l11.6406 -11.6406c7.64453 5.08203 16.2109 8.79297 25.2812 10.6992
c0.371094 0.0820312 0.742188 0.148438 1.11328 0.222656v16.4727c0 8.28516 6.71484 15 15 15s15 -6.71484 15 -15v-16.5352c9.36328 -1.89844 18.3008 -5.57031 26.3555 -10.8984l11.6797 11.6797c5.85938 5.85938 15.3594 5.85938 21.2148 0
c5.85938 -5.85938 5.85938 -15.3555 0 -21.2148l-11.6641 -11.6641c5.29297 -7.98438 9 -16.9258 10.9141 -26.3711h16.5039c8.28516 0 15 -6.71484 15 -15s-6.71484 -15 -15 -15h-16.5195c-2.74219 -13.5039 -9.15625 -26.0391 -18.7461 -36.2773
c-4.44141 -4.73828 -9.73828 -12.2695 -9.73828 -21.2148v-17.5117c0 -8.28516 -6.71484 -15 -15 -15h-60c-8.28516 0 -15.0039 6.71484 -15.0039 15v14.0117c0 8.84375 -3.97266 17.9375 -11.8125 27.0273c-8.56641 9.92969 -14.2109 21.5703 -16.7148 33.9648h-16.4727z
M151.453 264.719c-3.67969 -14.875 -0.234375 -29.8477 9.44922 -41.0742c12.4141 -14.3984 18.832 -29.7422 19.0898 -45.6328h30.0078v2.51172c0 14.8398 6.17188 29.2695 17.8477 41.7305c7.83594 8.36328 12.1523 19.2891 12.1523 30.7617
c0 27.8086 -25.3359 50.1719 -54.9414 43.9492c-16.0195 -3.36719 -29.6641 -16.3047 -33.6055 -32.2461zM151.453 264.719z" />
    <glyph glyph-name="122-view" unicode="&#xf179;" 
d="M428.219 265.543c46.3789 -30.4102 77.8516 -60.457 79.168 -61.7227c2.94922 -2.82812 4.61328 -6.73438 4.61328 -10.8203s-1.66406 -7.99219 -4.61328 -10.8203c-1.31641 -1.26562 -32.7891 -31.3125 -79.168 -61.7227
c-50.3594 -33.0195 -111.754 -62.457 -172.219 -62.457c-60.4688 0 -121.867 29.4414 -172.219 62.457c-46.3789 30.4102 -77.8516 60.457 -79.168 61.7227c-2.94922 2.82812 -4.61328 6.73438 -4.61328 10.8203s1.66406 7.99219 4.61328 10.8203
c1.31641 1.26562 32.7891 31.3125 79.168 61.7227c50.3594 33.0195 111.754 62.457 172.219 62.457c60.4688 0 121.867 -29.4414 172.219 -62.457zM141.809 121.074c-13.1719 20.8359 -20.8086 45.5039 -20.8086 71.9258c0 26.4492 7.65234 51.1406 20.8477 71.9922
c-46.4375 -24.2539 -85.5312 -55.7031 -104.379 -71.9844c18.8477 -16.2656 57.9375 -47.6836 104.34 -71.9336zM256 88c57.8867 0 105 47.0938 105 105c0 57.8867 -47.0938 105 -105 105c-57.8867 0 -105 -47.0938 -105 -105c0 -57.8867 47.0938 -105 105 -105z
M370.152 121.008c46.4375 24.2539 85.5312 55.7031 104.379 71.9844c-18.8516 16.2656 -57.9414 47.6836 -104.34 71.9336c13.1719 -20.8359 20.8086 -45.5039 20.8086 -71.9258c0 -26.4492 -7.65234 -51.1406 -20.8477 -71.9922zM370.152 121.008zM256 268
c41.3555 0 75 -33.6445 75 -75s-33.6445 -75 -75 -75s-75 33.6445 -75 75s33.6445 75 75 75zM256 148c24.8125 0 45 20.1875 45 45s-20.1875 45 -45 45s-45 -20.1875 -45 -45s20.1875 -45 45 -45zM256 148zM271 193c0 -8.28516 -6.71484 -15 -15 -15s-15 6.71484 -15 15
s6.71484 15 15 15s15 -6.71484 15 -15zM271 193zM256 358c-8.28516 0 -15 6.71484 -15 15v60c0 8.28516 6.71484 15 15 15s15 -6.71484 15 -15v-60c0 -8.28516 -6.71484 -15 -15 -15zM256 358zM69.293 359.586c-7.41016 3.70312 -10.4141 12.7148 -6.70703 20.125
c3.70312 7.40625 12.7148 10.4102 20.125 6.70703l60 -30c7.40625 -3.70703 10.4102 -12.7148 6.70703 -20.125c-3.69922 -7.40234 -12.707 -10.418 -20.125 -6.70703zM69.293 359.586zM382.707 329.586c-7.40625 -3.70703 -16.418 -0.703125 -20.125 6.70703
c-3.70312 7.41016 -0.699219 16.418 6.70703 20.125l60 30c7.41016 3.70312 16.4219 0.699219 20.125 -6.70703c3.70703 -7.41016 0.703125 -16.4219 -6.70703 -20.125zM382.707 329.586z" />
    <glyph glyph-name="123-layers" unicode="&#xf17a;" 
d="M249.293 325.414c4.22266 2.11328 9.19141 2.11328 13.418 0l30 -15c7.40625 -3.70312 10.4102 -12.7148 6.70703 -20.125c-3.69922 -7.39844 -12.707 -10.418 -20.125 -6.70703l-23.293 11.6484l-23.2891 -11.6484
c-7.41016 -3.70312 -16.4219 -0.699219 -20.125 6.70703c-3.70703 7.41016 -0.703125 16.4219 6.70703 20.125zM249.293 325.414zM512 311.977c-0.0078125 -5.68359 -3.22656 -10.8711 -8.31641 -13.4023l-93.6406 -46.6289l93.6289 -46.5117
c5.09766 -2.53125 8.32422 -7.73438 8.32812 -13.4258c0 -5.69531 -3.21875 -10.8984 -8.31641 -13.4336l-93.6406 -46.6289l93.6289 -46.5117c5.09375 -2.52734 8.31641 -7.71875 8.32812 -13.4023v-0.03125c0 -5.67188 -3.19922 -10.8594 -8.26953 -13.4062l-241 -121
c-2.11719 -1.0625 -4.42578 -1.59375 -6.73047 -1.59375s-4.61328 0.53125 -6.73047 1.59375l-241 121c-5.07031 2.54688 -8.26953 7.73438 -8.26953 13.4062v0.03125c0.0117188 5.68359 3.23438 10.875 8.32812 13.4023l93.6289 46.5117l-93.6406 46.6289
c-5.09766 2.53516 -8.31641 7.73828 -8.31641 13.4336c0.00390625 5.69141 3.23047 10.8945 8.32422 13.4258l93.6328 46.5117l-93.6445 46.625c-5.08594 2.53516 -8.30469 7.72266 -8.3125 13.4062c-0.0078125 5.67969 3.19141 10.8789 8.26953 13.4297l241 121
c4.23438 2.125 9.22656 2.125 13.4609 0l241 -121c5.07812 -2.55078 8.28125 -7.75 8.26953 -13.4297zM463.43 71.9297l-87.0625 43.25l-113.68 -56.6055c-2.10547 -1.05078 -4.39453 -1.57422 -6.6875 -1.57422c-2.28906 0 -4.57812 0.523438 -6.68359 1.57422
l-113.684 56.6055l-87.0586 -43.25l207.426 -104.145zM463.316 191.984l-86.9492 43.1914l-86.7695 -43.2031l3.11328 -1.55859c7.40625 -3.70312 10.4102 -12.7148 6.70703 -20.125c-3.69922 -7.39844 -12.707 -10.418 -20.125 -6.70703l-23.293 11.6484l-23.2891 -11.6484
c-7.41016 -3.70312 -16.4219 -0.699219 -20.125 6.70703c-3.70703 7.41016 -0.703125 16.4219 6.70703 20.125l3.10938 1.55859l-86.7695 43.2031l-86.9492 -43.1914l86.9648 -43.3008l27.2188 13.5195c7.42188 3.6875 16.4258 0.660156 20.1094 -6.75781
c3.69531 -7.44141 0.636719 -16.4336 -6.76172 -20.1094l-6.89062 -3.42188l86.6758 -43.1562l86.6758 43.1562l-6.89062 3.42188c-7.39062 3.67188 -10.4609 12.6602 -6.75781 20.1094c3.68359 7.41797 12.6875 10.4453 20.1055 6.75781l27.2188 -13.5195zM376.352 268.684
l87.1094 43.3711l-207.461 104.16l-207.457 -104.16l87.1055 -43.3711l27.2188 13.5195c7.42188 3.6875 16.4258 0.660156 20.1094 -6.75781c3.69531 -7.44141 0.636719 -16.4336 -6.76172 -20.1094l-6.89062 -3.42188l86.6758 -43.1562l86.6758 43.1562l-6.89062 3.42188
c-7.39062 3.67188 -10.4609 12.6602 -6.75781 20.1094c3.68359 7.41797 12.6875 10.4453 20.1055 6.75781zM376.352 268.684z" />
    <glyph glyph-name="104-crop" unicode="&#xf167;" 
d="M497 87c8.28418 0 15 -6.71582 15 -15v-60c0 -8.28418 -6.71582 -15 -15 -15h-46v-46c0 -8.28418 -6.71582 -15 -15 -15h-60c-8.28418 0 -15 6.71582 -15 15v46h-278.787l-25.6064 -25.6064c-2.92871 -2.92969 -6.76758 -4.39355 -10.6064 -4.39355
s-7.67773 1.46387 -10.6064 4.39355c-5.85742 5.8584 -5.85742 15.3555 0 21.2139l25.6064 25.6055v278.787h-46c-8.28418 0 -15 6.71582 -15 15v60c0 8.28418 6.71582 15 15 15h46v46c0 8.28418 6.71582 15 15 15h60c8.28418 0 15 -6.71582 15 -15v-46h278.787
l25.6055 25.6064c5.8584 5.85742 15.3564 5.85742 21.2139 0c5.85742 -5.8584 5.85742 -15.3555 0 -21.2139l-25.6064 -25.6055v-278.787h46zM91 418v-31h30v31h-30zM361 27v30h-225c-8.25586 0 -14.9736 6.73926 -14.998 14.9561
c0 0.0136719 -0.00195312 0.0292969 -0.00195312 0.0439453v225h-30v-270h270zM361 87v188.787l-188.787 -188.787h188.787zM151 108.213l188.787 188.787h-188.787v-188.787zM421 -34v391h-391v-30.001h345.995c7.73047 0.00390625 14.1885 -5.9209 14.9297 -13.5215
c0.046875 -0.476562 0.0722656 -0.954102 0.0732422 -1.43359c0 -0.0136719 0.00195312 -0.0292969 0.00195312 -0.0439453v-346h30zM482 27v30h-31v-30h31z" />
    <glyph glyph-name="096-virtual-reality" unicode="&#xf15f;" 
d="M438.154 364.308c40.7188 0 73.8457 -33.1279 73.8457 -73.8457v-196.923c0 -40.7188 -33.127 -73.8457 -73.8457 -73.8457h-364.309c-40.7188 0 -73.8457 33.127 -73.8457 73.8457v196.923c0 40.7178 33.127 73.8457 73.8457 73.8457h364.309zM482.462 93.5381v196.924
c0 24.4316 -19.877 44.3076 -44.3076 44.3076h-364.309c-24.4316 0 -44.3076 -19.877 -44.3076 -44.3076v-196.924c0 -24.4316 19.877 -44.3076 44.3076 -44.3076h364.309c24.4316 0 44.3076 19.877 44.3076 44.3076zM373.169 144.738
c6.52539 -4.89453 7.84863 -14.1514 2.95605 -20.6748c-2.90039 -3.86914 -7.33594 -5.90918 -11.8271 -5.90918c-3.08398 0 -6.19434 0.962891 -8.84961 2.95508l-78.7695 59.0762c-5.08594 3.81445 -7.16016 10.4541 -5.14941 16.4854s7.65332 10.0986 14.0107 10.0986
h49.2314c8.14355 0 14.7686 6.625 14.7686 14.7695c0 8.14355 -6.625 14.7686 -14.7686 14.7686h-59.7959l-54.9941 -109.988c-2.50293 -5.00293 -7.61621 -8.16406 -13.2119 -8.16406c-5.59473 0 -10.709 3.16016 -13.21 8.16406l-59.0762 118.153
c-3.64844 7.29492 -0.691406 16.167 6.60449 19.8145c7.2959 3.65137 16.167 0.69043 19.8145 -6.60547l45.8662 -91.7334l45.8672 91.7334c2.50098 5.00293 7.61523 8.16406 13.21 8.16406h68.9229c24.4326 0 44.3086 -19.876 44.3086 -44.3076
s-19.877 -44.3076 -44.3086 -44.3076h-4.92285z" />
    <glyph glyph-name="059-hashtag" unicode="&#xf13a;" 
d="M498.184 253h-68.0264l-16.0537 -122h68.0283l-13.8154 -105h-68.0283l-11.8418 -90h-105.26l11.8428 90h-121.741l-11.8418 -90h-105.26l11.8428 90h-68.0293l13.8164 105h68.0273l16.0537 122h-68.0283l13.8145 105h68.0293l11.8418 90h105.26l-11.8428 -90h121.741
l11.8418 90h105.26l-11.8428 -90h68.0283zM308.844 131l16.0537 122h-121.741l-16.0537 -122h121.741z" />
    <glyph glyph-name="135-content" unicode="&#xf186;" 
d="M450 433v-272c0 -124.367 -100.648 -225 -225 -225c-124.367 0 -225 100.648 -225 225v272c0 8.28516 6.71484 15 15 15h90c8.28516 0 15 -6.71484 15 -15v-272c0 -57.8984 47.1016 -105 105 -105s105 47.1016 105 105v272c0 8.28516 6.71484 15 15 15h90
c8.28516 0 15 -6.71484 15 -15zM30 418v-60h60v60h-60zM420 161v167h-60v-167c0 -74.4375 -60.5625 -135 -135 -135s-135 60.5625 -135 135v167h-60v-167c0 -107.523 87.4766 -195 195 -195s195 87.4766 195 195zM420 358v60h-60v-60h60zM420 358zM263.77 445.168
c5.96875 -4.30078 7.9375 -12.2969 4.64844 -18.875l-23.293 -46.5859l46.5859 -23.293c4.3125 -2.15625 7.32422 -6.25391 8.09766 -11.0117s-0.792969 -9.60156 -4.19922 -13.0078l-90 -90c-5.16797 -5.16797 -13.375 -5.89453 -19.3789 -1.5625
c-5.96875 4.30078 -7.93359 12.293 -4.64453 18.875l23.2891 46.582l-46.582 23.293c-4.3125 2.15625 -7.32422 6.25391 -8.09766 11.0156c-0.773438 4.75781 0.789062 9.59766 4.19922 13.0078l90 90c5.20312 5.20312 13.4102 5.86719 19.375 1.5625zM259.68 338.891
l-41.3867 20.6914c-3.52734 1.76562 -6.05859 4.73438 -7.33984 8.15625l-20.6328 -20.6289l41.3867 -20.6953c3.52734 -1.76172 6.05859 -4.73047 7.33984 -8.15234zM259.68 338.891zM240 191c0 -8.28516 -6.71484 -15 -15 -15s-15 6.71484 -15 15s6.71484 15 15 15
s15 -6.71484 15 -15zM240 191zM240 131c0 -8.28516 -6.71484 -15 -15 -15s-15 6.71484 -15 15s6.71484 15 15 15s15 -6.71484 15 -15zM240 131z" />
    <glyph glyph-name="038-down-chevron" unicode="&#xf125;" 
d="M485.386 332.934l26.6143 -26.7012l-256.001 -255.166l-255.999 255.166l26.6143 26.7012l229.385 -228.639z" />
    <glyph glyph-name="058-target-1" unicode="&#xf139;" 
d="M256 237c24.8135 0 45 -20.1865 45 -45s-20.1865 -45 -45 -45s-45 20.1865 -45 45s20.1865 45 45 45zM256 177c8.27148 0 15 6.72852 15 15s-6.72852 15 -15 15s-15 -6.72852 -15 -15s6.72852 -15 15 -15zM497 207c8.28418 0 15 -6.71582 15 -15s-6.71582 -15 -15 -15
h-46.5713c-7.30566 -95.5908 -83.8379 -172.123 -179.429 -179.429v-46.5713c0 -8.28418 -6.71582 -15 -15 -15s-15 6.71582 -15 15v46.5713c-95.5908 7.30566 -172.123 83.8379 -179.429 179.429h-46.5713c-8.28418 0 -15 6.71582 -15 15s6.71582 15 15 15h46.5713
c7.30566 95.5908 83.8379 172.123 179.429 179.429v46.5713c0 8.28418 6.71582 15 15 15s15 -6.71582 15 -15v-46.5713c95.5908 -7.30566 172.123 -83.8379 179.429 -179.429h46.5713zM241 356.311c-79.0352 -7.15625 -142.154 -70.2754 -149.311 -149.311h30.1484
c6.93945 62.4785 56.6836 112.223 119.162 119.162v30.1484zM241 27.6895v30.1484c-62.4785 6.93945 -112.223 56.6836 -119.162 119.162h-30.1484c7.15625 -79.0352 70.2754 -142.154 149.311 -149.311zM256 117c8.28418 0 15 -6.71582 15 -15v-13.9238
c45.916 6.59668 82.3271 43.1074 88.9238 89.0234h-13.9238c-8.28418 0 -15 6.61621 -15 14.9004s6.71582 15 15 15h13.9238c-6.59668 45.916 -43.0078 82.3271 -88.9238 88.9238v-13.9238c0 -8.28418 -6.71582 -15 -15 -15s-15 6.71582 -15 15v13.9238
c-45.916 -6.59668 -82.3271 -43.0078 -88.9238 -88.9238h13.9238c8.28418 0 15 -6.71582 15 -15s-6.71582 -15 -15 -15h-13.9238c6.59668 -45.916 43.0078 -82.3271 88.9238 -88.9238v13.9238c0 8.28418 6.71582 15 15 15zM271 27.6895
c79.0352 7.15625 142.154 70.376 149.311 149.41h-30.1484c-6.93945 -62.4775 -56.6836 -112.322 -119.162 -119.262v-30.1484zM390.162 207h30.1484c-7.15625 79.0352 -70.2754 142.154 -149.311 149.311v-30.1484c62.4785 -6.93945 112.223 -56.6836 119.162 -119.162z
" />
    <glyph glyph-name="029-click" unicode="&#xf11c;" 
d="M372.533 312.274c31.8477 0 57.7588 -25.9092 57.7588 -57.7588v-144.243c0 -96.0947 -78.1904 -174.27 -174.3 -174.27c-96.1016 0 -174.284 78.1748 -174.284 174.27v279.945c0 31.8604 25.9258 57.7822 57.792 57.7822c31.8477 0 57.7588 -25.9219 57.7568 -57.7822
v-81.4775c6.20898 2.28516 12.915 3.53418 19.9092 3.53418c14.9385 0 28.5703 -5.7041 38.834 -15.0449c10.2715 9.34082 23.916 15.0449 38.8672 15.0449c14.9365 0 28.5684 -5.70215 38.8311 -15.04c10.2637 9.33789 23.8955 15.04 38.835 15.04zM392.447 110.272
h0.00488281v144.243c0 10.9795 -8.93359 19.9141 -19.9141 19.9141c-10.9824 0 -19.9141 -8.93457 -19.9141 -19.9141v-41.5068c0 -10.4502 -8.47266 -18.9219 -18.9229 -18.9219s-18.9229 8.47168 -18.9229 18.9219v41.5068c0 10.9795 -8.93164 19.9141 -19.9092 19.9141
c-11 0 -19.9512 -8.93457 -19.9512 -19.9141v-41.5068c0 -10.4502 -8.47266 -18.9219 -18.9229 -18.9219s-18.9229 8.47168 -18.9229 18.9219v41.5068c0 10.9795 -8.92871 19.9141 -19.9043 19.9141c-10.9795 0 -19.9092 -8.93457 -19.9092 -19.9141v-41.5039
c0 -10.4502 -8.47168 -18.9229 -18.9219 -18.9229s-18.9229 8.47266 -18.9229 18.9229v41.5059v135.7c0 10.9932 -8.93359 19.9375 -19.9141 19.9375c-10.998 0 -19.9473 -8.94434 -19.9473 -19.9375v-279.945c0 -75.2236 61.2061 -136.425 136.439 -136.425
c75.2412 0 136.455 61.2012 136.455 136.425z" />
    <glyph glyph-name="130-settings" unicode="&#xf181;" 
d="M22.0625 -43.5107l-0.0351562 0.0351562c-29.374 29.3701 -29.3662 76.9043 0 106.271c5.20898 5.25586 143.805 145.018 148.716 149.973l-30.2383 30.4336c-37.4365 -13.2637 -80.3408 -4.62988 -109.675 24.7051c-31.4756 31.4795 -39.7383 79.6006 -20.5596 119.749
c2.10156 4.39941 6.21094 7.50684 11.0215 8.33301c4.80566 0.826172 9.71387 -0.735352 13.166 -4.18359l49.5068 -49.5068l21.252 21.252l-49.5068 49.5068c-3.44727 3.45215 -5.00977 8.36035 -4.18359 13.166c0.826172 4.81055 3.92969 8.91992 8.33301 11.0215
c40.1484 19.1826 88.2695 10.916 119.745 -20.5596c29.624 -29.624 37.8516 -72.6611 24.6855 -109.741l51.4082 -51.7422l90.9824 90.1104v36.2383c0 5.50684 3.01367 10.5752 7.85547 13.2061l93.7539 50.9189c5.85059 3.17871 13.0957 2.12988 17.7998 -2.5791
l42.5088 -42.5049c4.70898 -4.70801 5.75781 -11.9531 2.5791 -17.7998l-50.9189 -93.7539c-2.63086 -4.8418 -7.69922 -7.85938 -13.2061 -7.85938h-36.3525l-69.9287 -68.833l150.199 -149.526c29.3037 -29.3037 29.3193 -76.9355 0.0703125 -106.239
c-0.0078125 -0.0078125 -0.015625 -0.0195312 -0.0234375 -0.0273438c0 -0.00390625 -0.00390625 -0.00390625 -0.0078125 -0.0078125l-0.0195312 -0.0195312c-29.3701 -29.3701 -76.9004 -29.3662 -106.271 0c-108.258 107.777 -126.172 125.601 -129.119 128.548
l-127.252 -128.497c-29.4717 -29.4717 -76.9199 -29.3584 -106.235 -0.132812c-0.0117188 0.0117188 -0.0234375 0.0195312 -0.0351562 0.03125c-0.0078125 0.00390625 -0.0117188 0.0078125 -0.015625 0.015625zM107.041 -22.2227l84.9316 85.7607l-21.4561 21.46
l-114.881 -116c16.4697 -7.92188 37.2686 -5.3584 51.4053 8.7793zM405.949 -22.1992c13.8633 -13.8594 34.54 -16.7988 51.291 -8.8418l-116.72 116.117l-21.1152 -21.1152zM469.737 41.5381l-86.5674 86.1836l-21.3926 -21.3926l116.739 -116.142
c8.00391 16.7637 5.08789 37.4873 -8.7793 51.3506zM361.867 148.928l-42.5166 42.3291c-75.2021 -74.998 -62.3604 -62.1924 -63.8477 -63.6758l42.6025 -42.415c6.71289 6.71289 56.8574 56.8613 63.7617 63.7617zM376.739 372.606v-27.3418l34.0283 -34.0283h27.3418
l41.2998 76.0361l-26.6377 26.6338zM361.659 317.84l-84.7744 -83.9609l21.1348 -21.2725c7.92188 7.83203 52.583 51.6875 85.1855 83.6875c-7.64355 7.63965 -14.0703 14.0703 -21.5459 21.5459zM52.082 289.162c29.2998 -29.2988 76.9707 -29.2988 106.271 0
c29.2988 29.2959 29.2988 76.9707 0 106.271c-16.998 16.9941 -40.7871 24.5205 -63.7695 21.2598l42.5166 -42.5166c5.86719 -5.86621 5.86719 -15.3848 0 -21.252l-42.5088 -42.5088c-5.86719 -5.86719 -15.3896 -5.86719 -21.252 0l-42.5205 42.5166
c-3.25293 -22.9824 4.26953 -46.7754 21.2637 -63.7695zM168.168 258.004l87.3467 -87.9062l21.2529 21.2568c-2.40723 2.40723 -40.6387 40.9004 -87.335 87.8936c-2.95898 -3.95215 -6.23145 -7.74902 -9.82422 -11.3418
c-3.62402 -3.62012 -7.45215 -6.91602 -11.4404 -9.90234zM191.762 191.276l-42.3291 -42.6895c6.65332 -6.65332 56.751 -56.7471 63.6943 -63.6904l21.1748 21.3818l-10.6816 10.6299c-5.88672 5.86328 -5.89844 15.4014 -0.0195312 21.2754l10.626 10.627z
M43.3232 41.585c-14.2041 -14.207 -16.6934 -34.9355 -8.90039 -51.291l114.838 115.957l-20.9941 20.9932zM43.3232 41.585z" />
    <glyph glyph-name="051-sliders" unicode="&#xf132;" 
d="M0 307.2c0 35.3457 28.6533 64 64 64s64 -28.6543 64 -64c0 -35.3467 -28.6533 -64 -64 -64s-64 28.6533 -64 64zM384 76.7998c0 35.3467 28.6533 64 64 64s64 -28.6533 64 -64c0 -35.3457 -28.6533 -64 -64 -64s-64 28.6543 -64 64zM448 371.2
c35.3457 0 64 -28.6543 64 -64c0 -35.3467 -28.6543 -64 -64 -64h-304.148c14.0928 17.5449 22.5498 39.7979 22.5498 64s-8.45703 46.4551 -22.5498 64h304.148zM368.148 140.8c-14.0918 -17.5449 -22.5488 -39.7979 -22.5498 -64c0 -24.2021 8.45703 -46.4551 22.5498 -64
h-304.148c-35.3457 0 -64 28.6543 -64 64c0 35.3467 28.6543 64 64 64h304.148z" />
    <glyph glyph-name="021-tick-mark" unicode="&#xf114;" 
d="M509.642 400.593c2.83496 -3.83398 3.58105 -9.35645 -0.385742 -13.9365c-58.4219 -67.5635 -117.582 -143.625 -160.729 -224.699c-2.66016 -5.50684 -5.40137 -10.9453 -8.3584 -16.2197c-7.56836 -15.1104 -14.623 -30.3662 -20.9121 -45.7812
c-10.873 -26.6504 -21.7451 -53.3311 -31.6455 -80.3584c-3.09375 -8.44922 -13.1934 -57.1055 -24.2354 -58.6973c1.84668 0.269531 3.25488 -1.68555 1.86621 -3.20703c-1.20117 -1.32422 -2.35352 -1.96484 -3.44434 -2.16992
c0.694336 -3.90137 -1.17383 -8.2334 -5.79395 -9.65039c-13.3955 -4.1084 -29.5293 -1.30566 -43.3496 -0.199219c-15.8086 1.26562 -31.3008 3.11035 -46.7803 6.58887c-2.07031 0.46582 -3.41113 1.75586 -4.19238 3.34961
c-3.2793 0.422852 -6.44336 2.23242 -7.96973 6.02344c-42.0703 104.399 -123.95 195.878 -153.49 304.527c-1.37891 5.06738 4.03613 8.44629 7.98633 6.75781c0.640625 1.30859 1.65332 2.52051 3.43848 3.37109c10.9717 5.23145 23.2305 8.72168 34.9814 11.6855
c8.62109 2.17285 19.1484 5.87012 27.2852 1.12793c3.12109 1.40332 7.0625 0.956055 8.78906 -2.69238c32.7891 -69.2861 66.8467 -137.588 103.546 -204.804c3.31445 28.1582 24.3945 65.1914 32.2754 83.5322c18.5439 43.1592 40.0996 84.7773 59.166 127.688
c19.9141 44.8193 40.0166 106.295 82.1914 135.573c2.96777 2.06055 6.41992 3.39844 10.0811 4.39453c-0.893555 3.27441 1.11719 7.54199 5.24023 7.49316c41.0283 -0.476562 106.995 1.61328 133.301 -37.0547c0.598633 -0.876953 0.956055 -1.76562 1.13965 -2.64355z
M65.5283 268.742c2.19141 1.93652 5.26855 2.87891 8.06934 2.46387c-0.490234 1.35449 -1.04785 2.68457 -1.53223 4.04395c-2.53125 -1.38086 -5.40918 -2.2373 -8.35254 -2.95117c0.606445 -1.18457 1.19043 -2.38477 1.81543 -3.55664zM110.512 178.352
c0.62207 0.625 1.25195 1.25195 1.99512 1.70996c-2.86426 5.90723 -5.64355 11.8496 -8.40527 17.8027c-0.0273438 -0.0458984 -0.0517578 -0.0917969 -0.078125 -0.137695c1.68262 -5.52441 3.1875 -11.1172 4.57129 -16.7549
c0.0976562 -0.119141 0.223633 -0.15918 0.31543 -0.286133c0.557617 -0.766602 1.05273 -1.56641 1.60156 -2.33398zM230.257 -36.1084c2.30469 0.102539 4.60938 0.197266 6.91406 0.231445c-1.50488 1.77246 -2.33105 4.19238 -1.60742 7.27051
c0.298828 1.26562 0.675781 2.49609 0.980469 3.75879c-1.63672 -1.43848 -3.31152 -2.82715 -5.0752 -4.08984c0.55957 -2.47461 0.211914 -5.1543 -1.21191 -7.1709zM287.88 77.3438c1.57715 4.00195 3.25195 7.95703 4.8916 11.9336
c-0.637695 -0.476562 -1.31641 -0.915039 -1.96484 -1.38672c-3.06445 -7.4502 -6.12891 -14.9033 -8.9668 -22.4121c-0.118164 -1.13965 -0.255859 -2.27051 -0.398438 -3.39551c2.3291 5.29102 4.52637 10.4121 6.43848 15.2607zM341.654 189.267
c0.460938 1.10938 0.926758 2.2168 1.37891 3.33105c-12.5469 -21.7715 -25.2236 -43.4893 -36.8145 -65.7783c2.91797 3.55176 5.69727 7.2373 8.34668 11.0498c8.47559 17.3994 17.5547 34.5156 27.0889 51.3975zM407.624 389.278
c3.91504 3.69727 7.80859 7.45898 11.7451 11.3633c1.68262 1.67188 3.53223 2.31543 5.35254 2.49316c-1.81152 0.56543 -3.61914 1.06543 -5.42773 1.56445c-0.30957 0.00195312 -0.614258 -0.0302734 -0.923828 -0.0332031
c-2.78906 -4.26172 -5.69727 -8.17969 -8.69141 -11.9189c-0.724609 -1.14746 -1.38965 -2.30762 -2.05469 -3.46875z" />
    <glyph glyph-name="045-menu-2" unicode="&#xf12c;" 
d="M0.537109 388.453c0 32.8867 26.6602 59.5469 59.5479 59.5469c32.8867 0 59.5469 -26.6602 59.5469 -59.5469c0 -32.8877 -26.6602 -59.5479 -59.5469 -59.5479c-32.8877 0 -59.5479 26.6602 -59.5479 59.5479zM392.727 388.453
c0 32.8867 26.6602 59.5469 59.5479 59.5469c32.8867 0 59.5469 -26.6602 59.5469 -59.5469c0 -32.8877 -26.6602 -59.5479 -59.5469 -59.5479c-32.8877 0 -59.5479 26.6602 -59.5479 59.5479zM196.632 388.453c0 32.8867 26.6602 59.5469 59.5479 59.5469
c32.8867 0 59.5469 -26.6602 59.5469 -59.5469c0 -32.8877 -26.6602 -59.5479 -59.5469 -59.5479c-32.8877 0 -59.5479 26.6602 -59.5479 59.5479zM0.178711 191.999c0 32.8877 26.6611 59.5488 59.5488 59.5488s59.5479 -26.6611 59.5479 -59.5488
s-26.6602 -59.5479 -59.5479 -59.5479s-59.5488 26.6602 -59.5488 59.5479zM392.367 191.999c0 32.8877 26.6602 59.5488 59.5479 59.5488s59.5488 -26.6611 59.5488 -59.5488s-26.6611 -59.5479 -59.5488 -59.5479s-59.5479 26.6602 -59.5479 59.5479zM196.273 191.999
c0 32.8877 26.6611 59.5488 59.5488 59.5488s59.5479 -26.6611 59.5479 -59.5488s-26.6602 -59.5479 -59.5479 -59.5479s-59.5488 26.6602 -59.5488 59.5479zM0.179688 -4.45312c0 32.8877 26.6602 59.5479 59.5479 59.5479c32.8867 0 59.5469 -26.6602 59.5469 -59.5479
c0 -32.8867 -26.6602 -59.5469 -59.5469 -59.5469c-32.8877 0 -59.5479 26.6602 -59.5479 59.5469zM392.368 -4.45312c0 32.8877 26.6602 59.5479 59.5469 59.5479c32.8877 0 59.5479 -26.6602 59.5479 -59.5479c0 -32.8867 -26.6602 -59.5469 -59.5479 -59.5469
c-32.8867 0 -59.5469 26.6602 -59.5469 59.5469zM196.274 -4.45312c0 32.8877 26.6602 59.5479 59.5479 59.5479c32.8867 0 59.5469 -26.6602 59.5469 -59.5479c0 -32.8867 -26.6602 -59.5469 -59.5469 -59.5469c-32.8877 0 -59.5479 26.6602 -59.5479 59.5469z" />
    <glyph glyph-name="129-typography" unicode="&#xf180;" 
d="M15 358c-8.28516 0 -15 6.71484 -15 15v60c0 8.28516 6.71484 15 15 15h60c8.28516 0 15 -6.71484 15 -15v-15h45c8.28516 0 15 -6.71484 15 -15s-6.71484 -15 -15 -15h-45v-15c0 -8.28516 -6.71484 -15 -15 -15h-15v-45c0 -8.28516 -6.71484 -15 -15 -15
s-15 6.71484 -15 15v45h-15zM30 418v-30h30v30h-30zM30 418zM497 448c8.28516 0 15 -6.71484 15 -15v-60c0 -8.28516 -6.71484 -15 -15 -15h-15v-45c0 -8.28516 -6.71484 -15 -15 -15s-15 6.71484 -15 15v45h-15c-8.28516 0 -15 6.71484 -15 15v15h-45
c-8.28516 0 -15 6.71484 -15 15s6.71484 15 15 15h45v15c0 8.28516 6.71484 15 15 15h60zM482 388v30h-30v-30h30zM482 388zM15 -64c-8.28516 0 -15 6.71484 -15 15v60c0 8.28516 6.71484 15 15 15h15v45c0 8.28516 6.71484 15 15 15s15 -6.71484 15 -15v-45h15
c8.28516 0 15 -6.71484 15 -15v-15h45c8.28516 0 15 -6.71484 15 -15s-6.71484 -15 -15 -15h-45v-15c0 -8.28516 -6.71484 -15 -15 -15h-60zM30 -4v-30h30v30h-30zM30 -4zM497 26c8.28516 0 15 -6.71484 15 -15v-60c0 -8.28516 -6.71484 -15 -15 -15h-60
c-8.28516 0 -15 6.71484 -15 15v15h-45c-8.28516 0 -15 6.71484 -15 15s6.71484 15 15 15h45v15c0 8.28516 6.71484 15 15 15h15v45c0 8.28516 6.71484 15 15 15s15 -6.71484 15 -15v-45h15zM482 -34v30h-30v-30h30zM482 -34zM195 -4h30c8.28516 0 15 -6.71484 15 -15
s-6.71484 -15 -15 -15h-30c-8.28516 0 -15 6.71484 -15 15s6.71484 15 15 15zM195 -4zM287 -4h30c8.28516 0 15 -6.71484 15 -15s-6.71484 -15 -15 -15h-30c-8.28516 0 -15 6.71484 -15 15s6.71484 15 15 15zM287 -4zM225 388h-30c-8.28516 0 -15 6.71484 -15 15
s6.71484 15 15 15h30c8.28516 0 15 -6.71484 15 -15s-6.71484 -15 -15 -15zM225 388zM317 388h-30c-8.28516 0 -15 6.71484 -15 15s6.71484 15 15 15h30c8.28516 0 15 -6.71484 15 -15s-6.71484 -15 -15 -15zM317 388zM45 177c8.28516 0 15 -6.71484 15 -15v-31
c0 -8.28516 -6.71484 -15 -15 -15s-15 6.71484 -15 15v31c0 8.28516 6.71484 15 15 15zM45 177zM452 131v31c0 8.28516 6.71484 15 15 15s15 -6.71484 15 -15v-31c0 -8.28516 -6.71484 -15 -15 -15s-15 6.71484 -15 15zM452 131zM60 253v-30
c0 -8.28516 -6.71484 -15 -15 -15s-15 6.71484 -15 15v30c0 8.28516 6.71484 15 15 15s15 -6.71484 15 -15zM60 253zM467 208c-8.28516 0 -15 6.71484 -15 15v30c0 8.28516 6.71484 15 15 15s15 -6.71484 15 -15v-30c0 -8.28516 -6.71484 -15 -15 -15zM467 208zM90 343
c0 8.28516 6.71484 15 15 15h302c8.28516 0 15 -6.71484 15 -15v-120c0 -8.28516 -6.71484 -15 -15 -15s-15 6.71484 -15 15c0 24.8125 -20.1875 45 -45 45h-45v-167c0 -24.8125 20.1875 -45 45 -45c8.28516 0 15 -6.71484 15 -15s-6.71484 -15 -15 -15h-182
c-8.28516 0 -15 6.71484 -15 15s6.71484 15 15 15c24.8125 0 45 20.1875 45 45v167h-45c-24.8125 0 -45 -20.1875 -45 -45c0 -8.28516 -6.71484 -15 -15 -15s-15 6.71484 -15 15v120zM120 328v-45.0352c12.543 9.43359 28.1328 15.0352 45 15.0352h60
c8.28516 0 15 -6.71484 15 -15v-182c0 -16.8672 -5.60156 -32.457 -15.0352 -45h62.0703c-9.43359 12.543 -15.0352 28.1328 -15.0352 45v182c0 8.28516 6.71484 15 15 15h60c16.8672 0 32.457 -5.60156 45 -15.0352v45.0352h-272zM120 328z" />
    <glyph glyph-name="088-keypad" unicode="&#xf157;" 
d="M399.536 176.088c22.1309 0 40.1348 -18.0049 40.1357 -40.1348v-76.4688c0 -68.0898 -55.3945 -123.484 -123.483 -123.484h-3.94336c-53.9961 0 -101.136 36.5137 -114.635 88.7939c-3.08496 11.9482 -9.32715 22.875 -18.0537 31.5996l-26.9053 26.9062
c-15.6494 15.6504 -15.6484 41.1123 0 56.7598c15.3789 15.3809 40.2344 15.6436 55.9404 0.796875v104.431c0 22.1309 18.0049 40.1357 40.1357 40.1357c22.1318 0 40.1357 -18.0049 40.1357 -40.1357v-32.8428c3.23828 0.845703 6.63477 1.29883 10.1348 1.29883
c15.4541 0 28.8867 -8.78516 35.5908 -21.6191c4.54883 1.79492 9.49707 2.79199 14.6768 2.79199c15.4551 0 28.8887 -8.78613 35.5918 -21.6201c4.5498 1.79492 9.49902 2.79199 14.6787 2.79199zM409.672 59.4844v76.4688c0 5.58789 -4.54688 10.1348 -10.1348 10.1348
c-5.58887 0 -10.1357 -4.54688 -10.1357 -10.1348v-11.7129v-25.2402h-30v25.2412v11.7129v18.8291c0 5.58789 -4.5459 10.1338 -10.1348 10.1338c-5.58789 0 -10.1338 -4.5459 -10.1338 -10.1338v-3.26562v-52.5176h-30v52.5156v3.26562v18.8281
c0 5.58789 -4.5459 10.1338 -10.1338 10.1338c-5.58887 0 -10.1348 -4.5459 -10.1348 -10.1338v-12.5215v-62.0879h-30v62.0889v12.5215v71.6777c0 5.58887 -4.54688 10.1357 -10.1357 10.1357s-10.1357 -4.54688 -10.1357 -10.1357v-176.836l-50.3945 50.3945
c-3.95117 3.95215 -10.3818 3.95117 -14.334 0c-3.95215 -3.9502 -3.95215 -10.3809 0 -14.333l26.9043 -26.9053c12.5137 -12.5117 21.4658 -28.1807 25.8887 -45.3135c10.0791 -39.0332 45.2725 -66.2949 85.5869 -66.2949h3.94238
c51.5479 0 93.4844 41.9365 93.4854 93.4844v0zM117.329 448c24.8125 0 45 -20.5137 45 -45.7275c0 -25.2148 -20.1875 -45.7275 -45 -45.7275c-24.8135 0 -45 20.5127 -45 45.7275c0 25.2139 20.1865 45.7275 45 45.7275zM117.329 386.545c8.27051 0 15 7.05469 15 15.7275
c0 8.67188 -6.72949 15.7275 -15 15.7275c-8.27148 0 -15 -7.05566 -15 -15.7275c0 -8.67285 6.72852 -15.7275 15 -15.7275zM249.179 448c24.8135 0 44.999 -20.5127 44.999 -45.7266c0 -25.2148 -20.1855 -45.7266 -44.999 -45.7266s-45.001 20.5117 -45.001 45.7256
c0 25.2148 20.1885 45.7275 45.001 45.7275zM249.179 386.546c8.27148 0 15 7.05469 14.999 15.7266c0 8.67285 -6.72754 15.7275 -14.999 15.7275s-15.001 -7.05469 -15.001 -15.7275c0 -8.67188 6.73047 -15.7266 15.001 -15.7266zM381.027 448
c24.8125 0 45 -20.5137 45 -45.7275c0 -25.2148 -20.1875 -45.7275 -45 -45.7275c-24.8135 0 -45 20.5127 -45 45.7275c0 25.2139 20.1865 45.7275 45 45.7275zM381.027 386.545c8.27051 0 15 7.05469 15 15.7275c0 8.67188 -6.72949 15.7275 -15 15.7275
c-8.27148 0 -15 -7.05566 -15 -15.7275c0 -8.67285 6.72852 -15.7275 15 -15.7275zM381.027 316.151c24.8125 0 45 -20.5146 45 -45.7285s-20.1875 -45.7266 -45 -45.7266c-24.8135 0 -45 20.5117 -45 45.7266c0 25.2139 20.1865 45.7285 45 45.7285zM381.027 254.695
c8.27051 0 15 7.05469 15 15.7266s-6.72949 15.7285 -15 15.7285c-8.27148 0 -15 -7.05566 -15 -15.7285c0 -8.67188 6.72852 -15.7266 15 -15.7266zM117.328 316.15c24.8135 0 45 -20.5146 45 -45.7285s-20.1875 -45.7266 -45 -45.7266c-24.8135 0 -45 20.5127 -45 45.7266
s20.1865 45.7285 45 45.7285zM117.328 254.696c8.27051 0 15 7.05371 15 15.7266c0 8.67188 -6.72949 15.7285 -15 15.7285c-8.27148 0 -15 -7.05664 -15 -15.7285s6.72852 -15.7266 15 -15.7266z" />
    <glyph glyph-name="098-print" unicode="&#xf161;" 
d="M467 297c24.8135 0 45 -20.1865 45 -45v-150c0 -24.8135 -20.1865 -45 -45 -45h-75v-106c0 -8.28418 -6.71582 -15 -15 -15h-242c-8.28418 0 -15 6.71582 -15 15v106h-75c-24.8135 0 -45 20.1865 -45 45v150c0 24.8135 20.1865 45 45 45h75v136
c0 8.28418 6.71582 15 15 15h152c3.97168 0 7.82617 -1.61328 10.6064 -4.39258l89.9893 -89.9893c0.0195312 -0.0195312 0.0361328 -0.0400391 0.0556641 -0.0595703c2.36719 -2.39062 3.97461 -5.62598 4.2832 -9.27734
c0.0380859 -0.44043 0.0654297 -1.1416 0.0654297 -1.28027v-46.001h75zM302 396.787v-38.7871h38.7871zM150 418v-181h212v91h-75c-8.28418 0 -15 6.71582 -15 15v75h-122zM362 -34v151h-212v-151h212zM482 102v150c0 8.27148 -6.72852 15 -15 15h-75v-45
c0 -8.28418 -6.71582 -15 -15 -15h-242c-8.28418 0 -15 6.71582 -15 15v45h-75c-8.27148 0 -15 -6.72852 -15 -15v-150c0 -8.27148 6.72852 -15 15 -15h75v30h-15c-8.28418 0 -15 6.71582 -15 15s6.71582 15 15 15h302c8.28418 0 15 -6.71582 15 -15s-6.71582 -15 -15 -15
h-15v-30h75c8.27148 0 15 6.72852 15 15zM60 192c0 8.28418 6.71582 15 15 15s15 -6.71582 15 -15s-6.71582 -15 -15 -15s-15 6.71582 -15 15zM317 27c8.28418 0 15 -6.71582 15 -15s-6.71582 -15 -15 -15h-122c-8.28418 0 -15 6.71582 -15 15s6.71582 15 15 15h122zM317 87
c8.28418 0 15 -6.71582 15 -15s-6.71582 -15 -15 -15h-122c-8.28418 0 -15 6.71582 -15 15s6.71582 15 15 15h122z" />
    <glyph glyph-name="108-computer" unicode="&#xf16b;" 
d="M466.901 328c24.8125 0 45 -20.1865 45 -45v-242c0 -24.8135 -20.1875 -45 -45 -45h-144.787l34.3926 -34.3936c9.44434 -9.44336 2.69727 -25.6064 -10.6055 -25.6064h-180c-13.3555 0 -20.0137 16.2002 -10.6074 25.6064l34.3945 34.3936h-144.787
c-24.8135 0 -44.8008 20.1865 -44.8008 45v242c0 24.8135 19.9873 45 44.8008 45h142.971l40 60h-137.973v-15c0 -8.28418 -6.7168 -15 -15 -15h-60c-8.28418 0 -14.8008 6.71582 -14.8008 15v60c0 8.28418 6.5166 15 14.8008 15h60c8.2832 0 15 -6.71582 15 -15v-15
h332.199v15c0 8.28418 6.5166 15 14.8008 15h60c8.2832 0 15 -6.71582 15 -15v-60c0 -8.28418 -6.7168 -15 -15 -15h-60c-8.28418 0 -14.8008 6.71582 -14.8008 15v15h-138.173l40 -60h142.976zM451.899 418v-30h30.1992v30h-30.1992zM60.0986 388v30h-30.1992v-30h30.1992z
M255.899 238c-8.27148 0 -15 -6.72852 -15 -15s6.72852 -15 15 -15c8.27051 0 15 6.72852 15 15s-6.72949 15 -15 15zM241.099 353.459c-3.66309 -5.49609 -77.4102 -115.817 -80.0605 -119.792c29.0283 -10.3584 49.8613 -38.126 49.8613 -70.668v-15h90.1992v15
c0 32.542 20.6338 60.3086 49.6611 70.667c-2.66406 3.99707 -76.2031 114.305 -79.8604 119.792v-88.0381c17.459 -6.19238 30 -22.8652 30 -42.4199c0 -24.8135 -20.1875 -45 -45 -45c-24.8135 0 -45 20.1865 -45 45c0 19.5547 12.7402 36.2275 30.1992 42.4199v88.0391z
M331.099 118h-150.199v-32h150.199v32zM29.9014 283v-197h121.197v47c0 8.28418 6.5166 15 14.8008 15h15.1992v15c0 24.8135 -20.3867 45 -45.1992 45c-11.9492 0 -19.1201 13.3594 -12.4805 23.3203l44.4531 66.6797h-122.971c-8.27246 0 -15 -6.72852 -15 -15z
M202.114 -34h107.574l-30 30h-47.5742zM481.901 41v15h-452v-15c0 -8.27148 6.72852 -15 15 -15h422c8.27051 0 15 6.72852 15 15zM481.901 86v197c0 8.27148 -6.72949 15 -15 15h-122.976l44.4531 -66.6797c6.62891 -9.94336 -0.508789 -23.3203 -12.4795 -23.3203
c-24.8135 0 -45 -20.1865 -45 -45v-15h15c8.2832 0 15 -6.71582 15 -15v-47h121.002z" />
    <glyph glyph-name="109-art" unicode="&#xf16c;" 
d="M422 27c0 8.28418 6.71582 15 15 15s15 -6.71582 15 -15s-6.71582 -15 -15 -15s-15 6.71582 -15 15zM60 27c0 8.28418 6.71582 15 15 15s15 -6.71582 15 -15s-6.71582 -15 -15 -15s-15 6.71582 -15 15zM497 402c8.28418 0 15 -6.71582 15 -15v-360
c0 -41.3555 -33.6445 -75 -75 -75h-362c-41.3555 0 -75 33.6445 -75 75v269.896v0.0585938v0.0449219c0 1.74707 0.396484 3.77637 0.955078 5.2666l45 120c2.19531 5.85547 7.79199 9.7334 14.0449 9.7334s11.8496 -3.87793 14.0449 -9.7334l45 -120
c0.558594 -1.48828 0.955078 -3.50977 0.955078 -5.2666v-0.0458984v-0.0595703v-120.438c19.7676 13.9082 42.5762 27.2529 62.502 31.9775c-4.80762 19.7031 0.46582 41.3867 15.8252 56.7451c6.34961 6.35059 13.835 11.0898 22.249 14.0898l89.3877 31.8594
c5.45703 1.94531 11.5459 0.574219 15.6436 -3.52246c4.0957 -4.09668 5.4668 -10.1855 3.52246 -15.6426l-31.8574 -89.3867c-3 -8.41406 -7.74121 -15.9004 -14.0928 -22.25c-15.2871 -15.2871 -36.8086 -20.7178 -56.751 -15.8555
c-4.73047 -19.918 -18.0693 -42.7139 -31.9707 -62.4717h197.542v285c0 8.28418 6.71582 15 15 15h90zM230.65 251.012c-20.6406 -7.3584 -26.6729 -33.8955 -11.1182 -49.4619l0.00878906 -0.00878906l0.00878906 -0.00878906
c11.7314 -11.7188 30.6982 -11.71 42.417 0.00878906c3.18262 3.18066 5.55176 6.91895 7.0459 11.1104l21.2441 59.6055zM120 139.065v-37.0654h37.0664c14.7354 18.8232 26.2529 36.5732 33.458 51.626c8.02344 16.7637 7.90527 24.2627 7.5791 26.4775
c-2.21582 0.328125 -9.71387 0.444336 -26.4785 -7.58008c-15.0527 -7.20605 -32.8018 -18.7227 -51.625 -33.458zM60 374.28l-26.4033 -70.4082c16.8467 -7.36523 35.96 -7.36523 52.8066 0zM30 273.159v-186.2c12.5439 9.43848 28.1289 15.041 45 15.041h15v171.159
c-9.74512 -3.21484 -19.8711 -4.83496 -30 -4.83496s-20.2549 1.62012 -30 4.83496zM437 -18c24.8145 0 45 20.1865 45 45s-20.1865 45 -45 45h-362c-24.8135 0 -45 -20.1865 -45 -45s20.1865 -45 45 -45h362zM482 86.959v285.041h-60v-30h15c8.28418 0 15 -6.71582 15 -15
s-6.71582 -15 -15 -15h-15v-30h15c8.28418 0 15 -6.71582 15 -15s-6.71582 -15 -15 -15h-15v-30h15c8.28418 0 15 -6.71582 15 -15s-6.71582 -15 -15 -15h-15v-30h15c8.28418 0 15 -6.71582 15 -15s-6.71582 -15 -15 -15h-15v-30h15c16.8711 0 32.4561 -5.60254 45 -15.041z
" />
    <glyph glyph-name="010-reply-arrow" unicode="&#xf109;" 
d="M512 157.073v-170.646c0 89.9561 -72.9561 162.911 -162.941 162.911h-174.485v-100.867l-174.573 174.573l174.573 174.515v-77.5293h174.485c89.9854 -0.0146484 162.941 -73 162.941 -162.956z" />
    <glyph glyph-name="154-youtube-1" unicode="&#xf199;" 
d="M224.113 144.039v95.9219l83.2734 -47.9609zM224.113 144.039zM256 448c141.363 0 256 -114.637 256 -256s-114.637 -256 -256 -256s-256 114.637 -256 256s114.637 256 256 256zM415.961 191.738c0 0 0.265625 52.1758 -6.58594 77.2109
c-3.69141 13.7031 -14.4961 24.5117 -28.1992 28.1992c-25.0352 6.85156 -125.176 6.85156 -125.176 6.85156s-100.141 0 -125.176 -6.58984c-13.4414 -3.6875 -24.5117 -14.7578 -28.1992 -28.4609c-6.58984 -25.0352 -6.58984 -76.9492 -6.58984 -76.9492
s0 -52.1797 6.58984 -76.9492c3.69141 -13.7031 14.4961 -24.5117 28.1992 -28.1992c25.2969 -6.85156 125.176 -6.85156 125.176 -6.85156s100.141 0 125.176 6.58984c13.7031 3.6875 24.5078 14.4922 28.1992 28.1953c6.58594 25.0352 6.58594 76.9531 6.58594 76.9531z
M415.961 191.738z" />
    <glyph glyph-name="001-linkedin-button" unicode="&#xf100;" 
d="M256 448c141.376 0 256 -114.593 256 -256c0 -141.376 -114.624 -256 -256 -256s-256 114.624 -256 256s114.624 256 256 256zM192 68v224.001h-64v-224.001h64zM161.983 305.729c16.5762 0 30.0166 13.4395 30.0166 30.0156
c0 16.5449 -13.4404 29.9854 -30.0166 30.0166c-16.543 0 -29.9834 -13.4404 -29.9834 -30.0166s13.4072 -30.0156 29.9834 -30.0156zM415.999 68v136.546c0 75.0068 -43.2637 87.4229 -64 87.4229c-32 0 -54.8477 -14.3682 -64 -21.376v21.4082h-64v-224.001h64v138.496
s6.36816 27.584 39.4238 27.584c19.9365 0 24.5762 -11.3594 24.5762 -27.584v-138.496h64z" />
    <glyph glyph-name="063-phone-1" unicode="&#xf13e;" 
d="M459.647 169.375c12.4795 -12.4795 12.4795 -32.7676 0 -45.248l-135.775 -135.775c-6.24023 -6.20801 -14.4326 -9.34375 -22.624 -9.34375c-8.19238 0 -16.3838 3.10449 -22.624 9.34375l-226.271 226.271c-12.4795 12.4795 -12.4795 32.7676 0 45.248l135.775 135.775
c12.5127 12.4795 32.7363 12.4795 45.248 0zM74.9766 237.247l22.624 -22.624l135.775 135.775l-22.624 22.624zM256 56.2236l135.775 135.775l-135.775 135.775l-135.775 -135.775zM301.248 10.9756l135.775 135.775l-22.624 22.624l-135.775 -135.775zM159.681 -40.0322
c0.03125 -0.448242 0.255859 -0.799805 0.288086 -1.24805c0.03125 -0.288086 -0.0966797 -0.511719 -0.0966797 -0.767578c0 -0.671875 -0.0957031 -1.3125 -0.12793 -1.98438c-0.0957031 -0.799805 -0.223633 -1.56738 -0.448242 -2.36816
c-0.191406 -0.639648 -0.351562 -1.2793 -0.607422 -1.8877c-0.0957031 -0.255859 -0.0644531 -0.511719 -0.192383 -0.767578c-0.0957031 -0.256836 -0.383789 -0.320312 -0.511719 -0.576172c-0.383789 -0.768555 -0.832031 -1.47266 -1.34375 -2.14453
c-0.640625 -0.832031 -1.34375 -1.50391 -2.1123 -2.20801c-0.608398 -0.543945 -1.12012 -1.12012 -1.79199 -1.56738c-0.288086 -0.192383 -0.543945 -0.288086 -0.832031 -0.448242c-0.832031 -0.480469 -1.75977 -0.767578 -2.6875 -1.08789
c-0.640625 -0.224609 -1.15234 -0.639648 -1.82422 -0.799805c-0.640625 -0.12793 -1.3125 -0.12793 -1.95215 -0.192383c-0.192383 -0.0322266 -0.320312 -0.12793 -0.480469 -0.12793l-95.999 -5.75977c-0.320312 -0.0322266 -0.639648 -0.0322266 -0.959961 -0.0322266
c-8.41602 0 -15.4561 6.55957 -15.9678 15.04c-0.512695 8.83203 6.20801 16.3838 15.0078 16.9277l46.208 2.78418c-58.2402 44.6719 -93.248 113.216 -93.248 189.247c0 8.83203 7.16797 16 16 16s16 -7.16797 16 -16c0 -69.2793 33.376 -131.647 88.6719 -169.983
l-8.32031 38.624c-1.82422 8.63965 3.64844 17.1523 12.2881 19.0078c8.57617 1.8877 17.1514 -3.61621 19.04 -12.2559l16 -74.2393c0.0634766 -0.416016 -0.0644531 -0.800781 0 -1.18457zM418.751 413.246c58.2402 -44.6719 93.248 -113.216 93.248 -189.247
c0 -8.83203 -7.16797 -16 -16 -16s-16 7.16797 -16 16c0 69.2793 -33.376 131.647 -88.6719 170.016l8.32031 -38.6562c1.82422 -8.63965 -3.64844 -17.1523 -12.2881 -19.0078c-1.12012 -0.255859 -2.27148 -0.352539 -3.3916 -0.352539
c-7.36035 0 -13.9844 5.12012 -15.6484 12.6406l-16 74.2393c-0.0634766 0.416016 0.0644531 0.832031 0 1.24805c-0.03125 0.383789 -0.255859 0.736328 -0.288086 1.15234c-0.03125 0.255859 0.0966797 0.511719 0.0966797 0.767578
c0 0.671875 0.0957031 1.3125 0.160156 1.98438c0.0957031 0.832031 0.223633 1.59961 0.447266 2.39941c0.192383 0.640625 0.352539 1.28027 0.608398 1.88867c0.0957031 0.255859 0.0634766 0.511719 0.191406 0.767578
c0.128906 0.320312 0.448242 0.511719 0.608398 0.832031c0.383789 0.671875 0.767578 1.28027 1.24805 1.8877c0.448242 0.576172 0.864258 1.12012 1.37598 1.63281c0.448242 0.447266 0.896484 0.832031 1.37598 1.21582
c0.576172 0.447266 1.15234 0.799805 1.75977 1.15137c0.640625 0.384766 1.24805 0.736328 1.91992 1.02441c0.608398 0.255859 1.2168 0.448242 1.85645 0.639648c0.351562 0.0966797 0.607422 0.352539 0.959961 0.416016
c0.416016 0.0644531 0.799805 -0.0634766 1.21582 0c0.416016 0.0644531 0.768555 0.288086 1.18457 0.320312l95.999 5.75977c9.79199 0.576172 16.416 -6.20801 16.9277 -15.0078c0.512695 -8.83203 -6.20801 -16.3838 -15.0078 -16.9277z" />
    <glyph glyph-name="111-sketching" unicode="&#xf16e;" 
d="M497 297c8.28418 0 15 -6.71582 15 -15v-271c0 -8.28418 -6.71582 -15 -15 -15h-46v-45c0 -8.28418 -6.71582 -15 -15 -15h-361c-41.3555 0 -75 33.6445 -75 75v241c0 41.3555 33.6445 75 75 75c22.1846 0 51.6602 -10.4561 67.7637 -30h38.2363v106
c0 24.8135 20.1865 45 45 45s45 -20.1865 45 -45v-106h60v136c0 8.28418 6.71582 15 15 15h90c8.28418 0 15 -6.71582 15 -15v-136h46zM361 116v-30h60v332h-60v-30h15c8.28418 0 15 -6.71582 15 -15s-6.71582 -15 -15 -15h-15v-31h15c8.28418 0 15 -6.71582 15 -15
s-6.71582 -15 -15 -15h-15v-30h15c8.28418 0 15 -6.71582 15 -15s-6.71582 -15 -15 -15h-15v-31h15c8.28418 0 15 -6.71582 15 -15s-6.71582 -15 -15 -15h-15v-30h15c8.28418 0 15 -6.71582 15 -15s-6.71582 -15 -15 -15h-15zM211 403v-15h30v15
c0 8.27148 -6.72852 15 -15 15s-15 -6.72852 -15 -15zM211 358v-182h30v182h-30zM235.189 146h-18.3789l9.18945 -27.5664zM30 252v-181.041c12.5439 9.43848 28.1289 15.041 45 15.041s32.4561 -5.60547 45 -15.0439v206.475
c-8.54395 10.8721 -28.0762 19.5693 -45 19.5693c-24.8135 0 -45 -20.1865 -45 -45zM421 -34v30h-286c-8.28418 0 -15 6.71582 -15 15c0 24.8135 -20.1865 45 -45 45s-45 -20.1865 -45 -45s20.1865 -45 45 -45h346zM482 26v241h-31v-196c0 -8.28418 -6.71582 -15 -15 -15
h-90c-8.28418 0 -15 6.71582 -15 15v196h-60v-106c0 -1.57031 -0.294922 -3.27246 -0.739258 -4.63379c-0.0107422 -0.0361328 -0.0185547 -0.0732422 -0.0302734 -0.109375l-30 -90c-2.04199 -6.12598 -7.77441 -10.2568 -14.2305 -10.2568
s-12.1885 4.13086 -14.2305 10.2568l-30 90c-0.44043 1.32031 -0.769531 3.12402 -0.769531 4.74316v106h-31v-241h332z" />
    <glyph glyph-name="033-move-up" unicode="&#xf120;" 
d="M212.703 -64l0.00292969 309.976l-126.736 -0.00585938l170.029 202.03l170.034 -202.021l-126.742 -0.00292969l-0.00292969 -309.976h-86.585z" />
    <glyph glyph-name="136-creativity" unicode="&#xf187;" 
d="M91.625 -1.79688c-18.0352 5.86719 -31.1133 22.832 -31.1133 42.8008v66.5273c0 26.0625 -9.64453 52.9102 -27.8828 77.6484c-27.2266 36.9219 -37.6484 82.5547 -29.3477 128.488c11.7031 64.7773 62.6992 117.289 126.891 130.668
c105.211 21.9258 200.348 -57.3672 200.348 -161.324c0 -35.9492 -11.3594 -70.125 -32.8555 -98.8242c-17.7578 -23.7109 -27.1445 -50.1836 -27.1445 -76.5508v-66.6328c0 -19.9688 -13.082 -36.9336 -31.1172 -42.8008
c-6.09375 -35.2773 -36.8945 -62.2031 -73.8867 -62.2031s-67.7969 26.9258 -73.8906 62.2031zM165.516 -34c19.5547 0 36.2305 12.5547 42.4219 30.0117h-84.8438c6.19141 -17.457 22.8672 -30.0117 42.4219 -30.0117zM240.52 41.0039v17h-150.008v-17
c0 -8.26953 6.73047 -15 15 -15h120.004c8.27344 0 15.0039 6.73047 15.0039 15zM56.7734 202.984c22.0703 -29.9297 33.7383 -62.9375 33.7383 -95.4531v-19.5273h150.004v19.6328c0 32.9023 11.457 65.5938 33.1328 94.5352
c17.5781 23.4688 26.8711 51.4258 26.8711 80.8398c0 84.8086 -77.5391 150.02 -164.227 131.953c-52.3477 -10.9102 -93.9375 -53.7617 -103.488 -106.633c-6.81641 -37.7266 1.69531 -75.1406 23.9688 -105.348zM56.7734 202.984zM98.8047 269.594
c-4.3125 2.16016 -7.32812 6.25781 -8.09766 11.0156c-0.773438 4.75781 0.789062 9.60156 4.19922 13.0117l90.0039 90c5.19922 5.20312 13.4062 5.86719 19.375 1.5625c5.96875 -4.30078 7.9375 -12.2969 4.64844 -18.875l-23.293 -46.5859l46.5859 -23.293
c4.3125 -2.15625 7.32422 -6.25391 8.09766 -11.0156c0.773438 -4.75781 -0.789062 -9.59766 -4.19922 -13.0078l-90.0039 -90.0039c-5.15625 -5.16016 -13.3633 -5.89844 -19.3789 -1.5625c-5.96875 4.30078 -7.93359 12.2969 -4.64453 18.8789l23.293 46.582z
M151.469 307.754l-20.6328 -20.6328l41.3867 -20.6914c3.52734 -1.76562 6.05859 -4.73438 7.33984 -8.15625l20.6328 20.6289l-41.3867 20.6953c-3.53125 1.76172 -6.05859 4.73047 -7.33984 8.15625zM151.469 307.754zM180.516 133.008c0 -8.28516 -6.71484 -15 -15 -15
s-15 6.71484 -15 15s6.71484 15 15 15s15 -6.71484 15 -15zM180.516 133.008z" />
    <glyph glyph-name="151-kik" unicode="&#xf196;" 
d="M256 448c141.363 0 256 -114.637 256 -256s-114.637 -256 -256 -256s-256 114.637 -256 256s114.637 256 256 256zM199.707 109.219c8.25391 6.08203 10.0117 17.6992 3.92578 25.9531l-35.0938 47.6016l24.3242 23.2422
c7.41016 7.08203 7.67969 18.832 0.597656 26.2422s-18.832 7.67969 -26.2422 0.597656l-37.3477 -35.6836v72.6719c0 10.25 -8.30859 18.5625 -18.5586 18.5625s-18.5586 -8.3125 -18.5586 -18.5625v-145.688c0 -10.25 8.30859 -18.5586 18.5586 -18.5586
s18.5586 8.30859 18.5586 18.5586v21.668l11.6133 11.0977l32.2695 -43.7773c6.08594 -8.25391 17.7031 -10.0117 25.9531 -3.92578zM267.406 124.156v95.875c0 10.25 -8.30859 18.5586 -18.5586 18.5586s-18.5625 -8.30859 -18.5625 -18.5586v-95.875
c0 -10.25 8.3125 -18.5586 18.5625 -18.5586s18.5586 8.30859 18.5586 18.5586zM399.77 109.219c8.25 6.08203 10.0078 17.6992 3.92188 25.9531l-35.0898 47.6016l24.3242 23.2422c7.41016 7.08203 7.67578 18.832 0.597656 26.2422
c-7.08203 7.41016 -18.832 7.67969 -26.2422 0.597656l-37.3477 -35.6875v72.6758c0 10.25 -8.3125 18.5625 -18.5625 18.5625s-18.5586 -8.3125 -18.5586 -18.5625v-145.688c0 -10.25 8.30859 -18.5586 18.5586 -18.5586s18.5625 8.30859 18.5625 18.5586v21.668
l11.6094 11.0977l32.2734 -43.7773c6.08203 -8.25391 17.6992 -10.0117 25.9531 -3.92578zM438 159.223c11.7344 0 21.2461 9.51172 21.2461 21.2461s-9.51172 21.25 -21.2461 21.25s-21.2461 -9.51562 -21.2461 -21.25s9.51172 -21.2461 21.2461 -21.2461zM438 159.223z
" />
    <glyph glyph-name="036-left-arrow" unicode="&#xf123;" 
d="M512 208.127v-32.2549h-450.258l101.487 -101.486l-22.8076 -22.8086l-140.422 140.424l140.422 140.421l22.8076 -22.8076l-101.487 -101.487h450.258z" />
    <glyph glyph-name="093-tie" unicode="&#xf15c;" 
d="M268.034 43.9346l8.70898 168.152c0.246094 4.76172 -1.4248 9.28809 -4.70898 12.7461s-7.7168 5.3623 -12.4854 5.3623c-10.9541 0 -24.4072 -12.9561 -38.9043 -37.4648c-15.9795 -27.0176 -31.127 -64.4229 -45.7734 -100.597
c-14.5967 -36.0488 -29.6914 -73.3262 -46.0664 -101.385c-2.71191 -4.64746 -5.75293 -9.59863 -9.14453 -14.5488h121.119c5.91895 0 14.5586 5.48047 24.623 18.8242l31.2578 -24.7842c-17.3262 -22.5889 -36.0068 -34.0039 -55.8818 -34.0039h-180.833
c-33.0547 0 -59.9453 26.8916 -59.9453 59.9443c0 89.2031 21.3633 176.868 39.2852 234.704c13.2725 42.832 26.458 75.6543 33.71 92.6426l-51.8213 52.5947c-13.6543 13.8594 -21.1738 32.2051 -21.1738 51.6602v19.9814h236.78v-19.9814
c0 -19.4551 -7.52051 -37.8008 -21.1729 -51.6602l-51.5107 -52.2803c3.29785 -8.23926 6.66699 -16.4473 10.1709 -24.9785c3.11426 -7.58203 6.24805 -15.2246 9.36816 -22.9814c-9.85938 -9.92285 -19.2412 -22.1162 -28.4404 -36.9551
c-5.85254 15.4062 -11.9121 30.1885 -17.8945 44.7549c-3.25488 7.92578 -6.57812 16.0361 -9.85742 24.2109h-17.6514c-6.87598 -16.1357 -19.7734 -48.1982 -32.54 -89.5029c-17.0117 -55.0293 -37.29 -138.254 -37.29 -222.209
c0 -11.0176 8.96387 -19.9814 19.9824 -19.9814c5.26562 0 16.7285 4.50586 34.3438 34.6914c14.9268 25.5771 29.4736 61.501 43.541 96.2412c33.9482 83.8369 66.0127 163.026 121.72 163.026c1.00098 0 2.00098 -0.0263672 2.99707 -0.0800781v0.0800781h157.603
c44.958 0 81.9854 -35.1719 84.2979 -80.0703l7.55371 -146.677l-115.66 -101.204zM49.6406 404.17l55.4863 -56.3135h26.5293l55.4844 56.3135c1.12891 1.14746 2.16602 2.36035 3.1084 3.63086h-143.716c0.941406 -1.27148 1.97852 -2.48438 3.10742 -3.63086z
M314.054 230.195c2.0459 -6.46875 2.9541 -13.3076 2.60059 -20.1758l-7.64355 -147.571l86.0693 -68.2422l76.0127 66.5137l-6.55664 127.314c-1.2168 23.6416 -20.7148 42.1611 -44.3877 42.1611h-106.095z" />
    <glyph glyph-name="007-delete" unicode="&#xf106;" 
d="M494.692 347.152l-155.133 -155.149l155.133 -155.142c23.0752 -23.084 23.0752 -60.4775 0 -83.5615c-11.5293 -11.5293 -26.6455 -17.2979 -41.7539 -17.2979c-15.1338 0 -30.251 5.75977 -41.7715 17.2979l-155.167 155.159l-155.155 -155.157
c-11.5273 -11.5293 -26.6455 -17.2988 -41.7666 -17.2988c-15.1182 0 -30.2246 5.76074 -41.7637 17.2988c-23.0752 23.0732 -23.0752 60.4678 0 83.5615l155.129 155.142l-155.138 155.147c-23.0752 23.0752 -23.0752 60.4766 0 83.5518
c23.0713 23.0576 60.4512 23.0576 83.5303 0l155.162 -155.148l155.151 155.148c23.084 23.0576 60.4678 23.0576 83.5342 0c23.084 -23.0752 23.084 -60.4766 0.00878906 -83.5518z" />
    <glyph glyph-name="020-twitter-logo" unicode="&#xf113;" 
d="M438.951 70.4277c29.0684 -37.0498 29.6396 -80.3672 -18.2393 -102.028c-84.3574 -38.7588 -292.972 -62.1279 -339.711 46.1689c-37.0488 85.498 -30.209 191.515 -19.9492 281.572c6.26953 55.8584 7.97949 129.957 71.248 149.336
c48.4482 14.8203 92.3379 -38.7588 99.1777 -79.7979c3.41992 -21.6592 6.26953 -43.8887 7.97949 -66.1182c48.4482 5.12988 103.737 9.69043 148.196 -5.69922c35.9092 -12.54 68.3975 -49.0186 54.7178 -90.0576c-21.6592 -64.9785 -144.774 -48.4492 -202.344 -36.4785
c-1.70996 -21.0898 -5.12988 -41.6094 -9.12012 -62.1279c68.9678 5.12988 160.166 26.7891 208.044 -34.7695z" />
    <glyph glyph-name="117-usb" unicode="&#xf174;" 
d="M512 299.392l-127.219 -127.218l21.2148 -21.2158l-175.629 -175.23c-52.7383 -52.7373 -138.099 -52.7031 -190.814 0.0126953c-52.7393 52.7373 -52.7334 138.093 0 190.826l175.616 175.218l21.1904 -21.1914l127.219 127.219zM209.177 -3.05664l154.389 154.038
l-148.421 148.422l-154.401 -154.051c-41.0156 -41.0137 -40.9912 -107.406 0.0117188 -148.409c41.0195 -41.0195 107.406 -41.0146 148.422 0zM257.562 299.391l106.016 -106.017l106.016 106.016l-106.016 106.016zM342.374 299.388l-21.2021 21.2021l42.4053 42.4053
l21.2021 -21.2021zM384.785 256.984l-21.2021 21.2021l42.4053 42.4053l21.2021 -21.2021zM268.163 203.977c29.2295 -29.2295 29.2295 -76.7881 0 -106.016c-29.2988 -29.2998 -76.7188 -29.2939 -106.015 0c-29.2295 29.2275 -29.2295 76.7871 0 106.016
c29.2998 29.3008 76.7207 29.2959 106.015 0zM246.961 119.164c17.5361 17.5361 17.5361 46.0713 0 63.6094c-17.5811 17.582 -46.0322 17.5771 -63.6104 0c-17.5371 -17.5381 -17.5371 -46.0723 0 -63.6094c17.582 -17.5801 46.0332 -17.5771 63.6104 0z" />
    <glyph glyph-name="105-rgb" unicode="&#xf168;" 
d="M418.001 250.656c55.5732 -26.7012 93.999 -83.3027 93.999 -148.656c0 -44.0732 -17.3408 -85.6855 -48.8271 -117.173c-31.4873 -31.4873 -73.0996 -48.8271 -117.173 -48.8271c-33.1807 0 -64.0986 9.91309 -90 26.9385
c-25.9014 -17.0254 -56.8193 -26.9385 -90 -26.9385c-44.0732 0 -85.6855 17.3398 -117.173 48.8271s-48.8271 73.0996 -48.8271 117.173c0 65.3535 38.4258 121.956 93.999 148.656c-1.95996 10.1514 -2.99902 20.6279 -2.99902 31.3438c0 91.5332 74.0186 166 165 166
s165 -74.4668 165 -166c0 -10.7158 -1.03906 -21.1924 -2.99902 -31.3438zM256 418c-74.4395 0 -135 -61.0088 -135 -136c0 -7.0498 0.545898 -13.9736 1.5918 -20.7354c13.8428 3.73242 28.3936 5.73535 43.4082 5.73535c33.1807 0 64.0986 -9.85352 90 -26.7764
c25.9014 16.9229 56.8193 26.7764 90 26.7764c15.0146 0 29.5654 -2.00293 43.4082 -5.73535c1.0459 6.76172 1.5918 13.6855 1.5918 20.7354c0 74.9912 -60.5605 136 -135 136zM256 202.53c-15.4521 -13.8486 -27.707 -31.1943 -35.5 -50.7842
c11.3174 -3.08789 23.2178 -4.74609 35.5 -4.74609s24.1826 1.6582 35.5 4.74609c-7.79199 19.5898 -20.0469 36.9355 -35.5 50.7842zM192.623 162.832c8.67773 21.8027 21.8809 41.3281 38.4355 57.4229c-19.3076 10.665 -41.4844 16.7451 -65.0586 16.7451
c-12.2881 0 -24.1963 -1.63574 -35.5273 -4.68164c11.8535 -29.8428 34.0557 -54.4844 62.1504 -69.4863zM280.941 220.255c16.5547 -16.0947 29.7578 -35.6201 38.4355 -57.4229c28.0947 15.002 50.2969 39.6445 62.1504 69.4863
c-11.3311 3.0459 -23.2393 4.68164 -35.5273 4.68164c-23.5742 0 -45.751 -6.08008 -65.0586 -16.7451zM166 -34c23.6162 0 45.8301 6.14746 65.1621 16.9268c-30.916 30.1875 -50.1621 72.4082 -50.1621 119.073c0 10.7852 1.05176 21.3271 3.03711 31.541
c-36.9668 17.9922 -66.2559 49.3877 -81.4971 87.8301c-43.1045 -22.6709 -72.54 -67.6699 -72.54 -119.371c0 -74.9912 61.0088 -136 136 -136zM256 0.724609c27.6006 24.9199 45 61.0869 45 101.275c0 7.07324 -0.549805 14.0195 -1.60254 20.8027
c-13.834 -3.77441 -28.3828 -5.80273 -43.3975 -5.80273s-29.5615 2.02832 -43.3975 5.80273c-1.05273 -6.7832 -1.60254 -13.7295 -1.60254 -20.8027c0 -40.1895 17.3994 -76.3564 45 -101.275zM346 -34c74.9902 0 136 61.0088 136 136
c0 51.7012 -29.4355 96.7002 -72.54 119.371c-15.2422 -38.4424 -44.5303 -69.8379 -81.4971 -87.8301c1.98535 -10.2139 3.03711 -20.7559 3.03711 -31.541c0 -46.665 -19.2461 -88.8857 -50.1621 -119.073c19.332 -10.7793 41.5459 -16.9268 65.1621 -16.9268z" />
    <glyph glyph-name="126-vector" unicode="&#xf17d;" 
d="M497 266c8.28516 0 15 -6.71484 15 -15v-60c0 -8.28516 -6.71484 -15 -15 -15h-15.5156c-5.11328 -76.9453 -49.2383 -143.445 -112.832 -180h53.3477v15c0 8.28516 6.71484 15 15 15h60c8.28516 0 15 -6.71484 15 -15v-60c0 -8.28516 -6.71484 -15 -15 -15h-60
c-8.28516 0 -15 6.71484 -15 15v15h-332v-15c0 -8.28516 -6.71484 -15 -15 -15h-60c-8.28516 0 -15 6.71484 -15 15v60c0 8.28516 6.71484 15 15 15h60c8.28516 0 15 -6.71484 15 -15v-15h53.3477c-63.5938 36.5547 -107.719 103.055 -112.832 180h-15.5156
c-8.28516 0 -15 6.71484 -15 15v60c0 8.28516 6.71484 15 15 15h60c8.28516 0 15 -6.71484 15 -15v-60c0 -8.28516 -6.71484 -15 -15 -15h-14.4258c7.14844 -93.0547 80.2383 -168.031 172.746 -178.688c-4.26172 10.9688 -5.37109 12.3984 -21.6875 56.5742
c-22.0859 59.7891 -41.1562 111.426 -86.2383 156.508c-5.85938 5.85547 -5.85938 15.3516 0 21.2109c33.0391 33.043 52.9023 78.293 55.3438 125.406h-14.7383c-8.28516 0 -15 6.70312 -15 14.9883s6.71484 15 15 15h15v46c0 8.28516 6.71484 15 15 15h120
c8.28516 0 15 -6.71484 15 -15v-46h15c8.28516 0 15 -6.71484 15 -15s-6.71484 -15 -15 -15h-14.7383c2.44141 -47.1094 22.3047 -92.3516 55.3438 -125.395c5.85938 -5.85547 5.85938 -15.3516 0 -21.2109c-45.082 -45.082 -64.1523 -96.7188 -86.2383 -156.508
c-16.4648 -44.582 -17.3164 -45.3281 -21.6875 -56.5742c92.5078 10.6562 165.598 85.6445 172.746 178.699h-14.4258c-8.28516 0 -15 6.70312 -15 14.9883v60c0 8.28516 6.71484 15 15 15h60zM60 206v30h-30v-30h30zM60 -34v30h-30v-30h30zM211 418v-31h90v31h-90zM256 236
c8.26953 0 15 6.73047 15 15s-6.73047 15 -15 15s-15 -6.73047 -15 -15s6.73047 -15 15 -15zM271 60.9648c0.40625 1.10156 0.820312 2.21875 1.22656 3.31641c20.7812 56.2578 40.4883 109.613 83.1758 156.82c-32.5977 37.4102 -51.9258 85.8047 -54.1797 135.898
h-90.4453c-2.25391 -50.0938 -21.582 -98.4883 -54.1758 -135.898c42.6836 -47.207 62.3906 -100.562 83.1719 -156.82c0.40625 -1.09766 0.820312 -2.21484 1.22656 -3.31641v147.613c-17.4609 6.19531 -30 22.8672 -30 42.4219c0 24.8125 20.1875 45 45 45
s45 -20.1875 45 -45c0 -19.5547 -12.5391 -36.2266 -30 -42.4219v-147.613zM452 -4v-30h30v30h-30zM482 206v30h-30v-30h30zM482 206z" />
    <glyph glyph-name="039-up-chevron" unicode="&#xf126;" 
d="M256 332.934l256 -255.166l-26.6133 -26.7012l-229.387 228.64l-229.386 -228.64l-26.6143 26.7012z" />
    <glyph glyph-name="009-facebook-letter-logo" unicode="&#xf108;" 
d="M188.177 348.841c0 12.8799 -2.62207 99.1641 108.701 99.1582h78.5898v-89.7373h-57.8008c-11.4326 0 -23 -11.8486 -23 -20.6582v-58.9365h80.6895c-3.23242 -45.1914 -9.89941 -86.5234 -9.89941 -86.5234h-71.1914v-256.143h-106.089v256.15h-51.6445v86.1982
h51.6445v70.4912z" />
    <glyph glyph-name="160-snapchat-1" unicode="&#xf19f;" 
d="M256 448c141.363 0 256 -114.637 256 -256s-114.637 -256 -256 -256s-256 114.637 -256 256s114.637 256 256 256zM409.316 109.344c0.265625 0.613281 0.417969 1.24219 0.453125 1.86719c0.09375 1.66016 -1.08594 3.13281 -2.73047 3.40234
c-44.5859 7.34766 -64.5469 52.8828 -65.375 54.8164c-0.0234375 0.0546875 -0.0507812 0.105469 -0.0742188 0.160156c-2.73047 5.52734 -3.26172 10.3203 -1.59375 14.2578c3.05859 7.19922 13.0273 10.3711 19.6367 12.4648c1.625 0.515625 3.15625 1 4.35547 1.47266
c11.5547 4.56641 13.9141 9.20703 13.8555 12.293c-0.0625 3.28125 -2.99609 6.41406 -7.46875 8l-0.101562 0.0429688c-1.57422 0.652344 -3.46875 1.01953 -5.34766 1.01953c-1.22266 0 -3.02734 -0.160156 -4.64453 -0.921875
c-5.53516 -2.58594 -10.5742 -3.98828 -14.9688 -4.15625h-0.00390625c-5.76953 0.222656 -8.32812 2.67969 -8.64844 3.00781c0.148438 2.73047 0.328125 5.57812 0.511719 8.50781l0.0585938 0.917969c1.32812 21.0508 2.97656 47.2539 -3.69141 62.2031
c-19.9844 44.8164 -62.4453 48.3008 -74.9805 48.3008h-0.738281s-5.16406 -0.0546875 -5.48438 -0.0546875c-12.5117 0 -54.8711 -3.48438 -74.8477 -48.2734c-6.67188 -14.9414 -5.02344 -41.125 -3.69531 -62.1875
c0.203125 -3.25391 0.402344 -6.40625 0.570312 -9.42188c-0.339844 -0.351562 -3.12109 -3.02734 -9.48828 -3.02734c-4.61328 0 -9.95312 1.41016 -15.8828 4.18359c-1.01953 0.476562 -2.23047 0.722656 -3.60156 0.722656
c-5.01953 0 -11.2227 -3.23828 -12.1055 -7.88281c-0.519531 -2.72266 0.574219 -8.06641 13.75 -13.2734c1.21094 -0.480469 2.74219 -0.960938 4.35547 -1.47656c6.60156 -2.09375 16.5781 -5.26172 19.6367 -12.4648
c1.66406 -3.93359 1.13281 -8.73438 -1.59375 -14.2617c-0.0273438 -0.0507812 -0.0507812 -0.105469 -0.0703125 -0.152344c-0.832031 -1.93359 -20.8164 -47.4844 -65.375 -54.8203c-1.64844 -0.265625 -2.82422 -1.73828 -2.73047 -3.40625
c0.03125 -0.609375 0.1875 -1.23438 0.445312 -1.85156c1.84766 -4.33203 10.1484 -10.4414 39.1367 -14.918c2.48438 -0.382812 3.40234 -4.03125 4.69922 -9.96094c0.507812 -2.3125 1.02734 -4.69141 1.75 -7.15625c0.832031 -2.83984 2.74219 -3.22266 4.50781 -3.22266
c1.69141 0 3.91797 0.433594 6.49219 0.9375c4.24609 0.828125 10.0508 1.96484 17.4219 1.96484c4.08203 0 8.3125 -0.351562 12.5625 -1.05469c8.71094 -1.45312 16.1055 -6.67969 23.9375 -12.2109c11.3438 -8.02734 23.0742 -16.3164 41.3516 -16.3164
c0.519531 0 1.03906 0.0195312 1.53906 0.0625c0.785156 -0.0351562 1.5625 -0.0625 2.35938 -0.0625c18.2852 0 30.0156 8.29297 41.3789 16.332c7.82031 5.53125 15.207 10.7422 23.9062 12.1953c4.25391 0.703125 8.48438 1.05469 12.5742 1.05469
c7.00391 0 12.5078 -0.882812 17.418 -1.83984c2.76953 -0.542969 4.94922 -0.820312 6.48828 -0.820312h0.359375c2.21484 0 3.53125 0.988281 4.14844 3.09766c0.714844 2.43359 1.23438 4.75 1.75 7.10547c1.41406 6.47266 2.33203 9.5625 4.70703 9.92578
c28.9922 4.47656 37.2812 10.582 39.125 14.8789zM409.316 109.344z" />
    <glyph glyph-name="138-solution" unicode="&#xf189;" 
d="M60 223c-33.0859 0 -60 26.9141 -60 60s26.9141 60 60 60v30c0 8.28516 6.71484 15 15 15h47.5625c4.86719 0 9.43359 -2.36328 12.2461 -6.33984c2.80859 -3.97656 3.51562 -9.06641 1.89453 -13.6602c-1.12891 -3.19531 -1.70312 -6.5625 -1.70312 -10
c0 -16.543 13.457 -30 30 -30s30 13.457 30 30c0 3.4375 -0.574219 6.80469 -1.70312 10.0039c-1.625 4.58984 -0.914062 9.68359 1.89453 13.6562c2.8125 3.97656 7.37891 6.33984 12.2461 6.33984h79.5625c0 33.0859 26.9141 60 60 60s60 -26.9141 60 -60h30
c8.28516 0 15 -6.71484 15 -15v-47.5586c0 -4.87109 -2.36328 -9.4375 -6.33984 -12.25s-9.07031 -3.51562 -13.6602 -1.89453c-3.19531 1.12891 -6.5625 1.70312 -10 1.70312c-16.543 0 -30 -13.457 -30 -30s13.457 -30 30 -30c3.4375 0 6.80469 0.574219 10 1.70312
c4.59375 1.625 9.68359 0.917969 13.6602 -1.89453s6.33984 -7.37891 6.33984 -12.2461v-79.5625c33.0859 0 60 -26.9141 60 -60s-26.9141 -60 -60 -60v-30c0 -8.28516 -6.71484 -15 -15 -15h-47.5625c-4.86719 0 -9.43359 2.36328 -12.2461 6.33984
c-2.80859 3.97656 -3.51562 9.06641 -1.89453 13.6602c1.12891 3.19531 1.70312 6.5625 1.70312 10c0 16.543 -13.457 30 -30 30s-30 -13.457 -30 -30c0 -3.4375 0.574219 -6.80469 1.70312 -10.0039c1.625 -4.58984 0.914062 -9.68359 -1.89453 -13.6562
c-2.8125 -3.97656 -7.37891 -6.33984 -12.2461 -6.33984h-79.5625c0 -33.0859 -26.9141 -60 -60 -60s-60 26.9141 -60 60h-30c-8.28516 0 -15 6.71484 -15 15v47.5625c0 4.86719 2.36328 9.43359 6.33984 12.2461s9.07031 3.51562 13.6602 1.89453
c3.19531 -1.12891 6.5625 -1.70312 10 -1.70312c16.543 0 30 13.457 30 30s-13.457 30 -30 30c-3.4375 0 -6.80469 -0.574219 -10 -1.70312c-4.59375 -1.62109 -9.68359 -0.914062 -13.6602 1.89453c-3.97656 2.8125 -6.33984 7.37891 -6.33984 12.2461v79.5625zM271 358
v-151h151v16c-33.0859 0 -60 26.9141 -60 60s26.9141 60 60 60v15h-32.5625c-4.86719 0 -9.43359 2.36328 -12.2461 6.33984c-2.80859 3.97656 -3.51562 9.06641 -1.89453 13.6602c1.12891 3.19531 1.70312 6.5625 1.70312 10c0 16.543 -13.457 30 -30 30
s-30 -13.457 -30 -30c0 -3.4375 0.574219 -6.80469 1.70312 -10.0039c1.625 -4.58984 0.914062 -9.68359 -1.89453 -13.6562c-2.8125 -3.97656 -7.37891 -6.33984 -12.2461 -6.33984h-33.5625zM271 177v-151h16c0 33.0859 26.9141 60 60 60s60 -26.9141 60 -60h15v32.5586
c0 4.87109 2.36328 9.43359 6.33984 12.2461s9.07031 3.51953 13.6602 1.89844c3.19531 -1.13281 6.5625 -1.70312 10 -1.70312c16.543 0 30 13.457 30 30c0 16.5391 -13.457 30 -30 30c-3.4375 0 -6.80469 -0.574219 -10 -1.70312
c-4.59375 -1.62109 -9.68359 -0.914062 -13.6602 1.89453c-3.97656 2.8125 -6.33984 7.37891 -6.33984 12.2461v33.5625h-151zM241 26v151h-151v-16c33.0859 0 60 -26.9141 60 -60s-26.9141 -60 -60 -60v-15h32.5625c4.86719 0 9.42969 -2.36328 12.2422 -6.33984
c2.8125 -3.97266 3.51953 -9.06641 1.89844 -13.6562c-1.13281 -3.19922 -1.70312 -6.5625 -1.70312 -10.0039c0 -16.5391 13.457 -30 30 -30c16.5391 0 30 13.4609 30 30c0 3.4375 -0.574219 6.80469 -1.70312 10.0039c-1.625 4.58984 -0.914062 9.68359 1.89453 13.6562
c2.8125 3.97656 7.37891 6.33984 12.2461 6.33984h33.5625zM60 313c-16.543 0 -30 -13.457 -30 -30s13.457 -30 30 -30c3.4375 0 6.80469 0.574219 10 1.70312c4.59375 1.625 9.68359 0.917969 13.6602 -1.89453s6.33984 -7.37891 6.33984 -12.2461v-33.5625h151v151h-16
c0 -33.0859 -26.9141 -60 -60 -60s-60 26.9141 -60 60h-15v-32.5625c0 -4.86719 -2.36328 -9.43359 -6.33984 -12.2461s-9.07031 -3.51562 -13.6602 -1.89453c-3.19531 1.12891 -6.5625 1.70312 -10 1.70312zM60 313z" />
    <glyph glyph-name="073-reddit" unicode="&#xf148;" 
d="M175.233 160.17v-0.03125h15.9307zM334.536 160.17v-0.03125h15.9307zM512 207.93c0 -24.1826 -13.5723 -45.752 -34.3457 -56.3301c0.15918 -2.45312 0.254883 -4.90625 0.254883 -7.3916c0 -87.8398 -100.074 -159.303 -223.024 -159.303
c-122.981 0 -223.024 71.4629 -223.024 159.303c0 2.89941 0.0957031 5.7666 0.350586 8.57031c-19.499 10.8008 -32.2109 31.8613 -32.2109 55.1514c0 35.1416 28.5791 63.7207 63.7217 63.7207c13.8594 0 26.8584 -4.30078 37.3398 -12.0752
c38.4883 26.2529 89.4648 41.3232 142.959 43.1709l36.958 86.6611c3.05859 7.10547 10.6094 11.0234 18.3203 9.27148l90.8984 -21.251c8.53809 13.0312 23.2256 21.665 39.9209 21.665c26.3486 0 47.791 -21.4424 47.791 -47.791s-21.4424 -47.791 -47.791 -47.791
c-24.6924 0 -44.8281 18.8623 -47.3125 42.917l-77.7725 18.1602l-26.7305 -62.7012c49.543 -3.72852 96.123 -18.4482 131.68 -43.1396c10.8965 8.31543 24.2461 12.9033 38.2959 12.9033c35.1426 0 63.7217 -28.5791 63.7217 -63.7207zM430.118 367.232
c-8.76172 0 -15.9307 -7.13672 -15.9307 -15.9307c0 -8.79297 7.16895 -15.9297 15.9307 -15.9297s15.9307 7.13672 15.9307 15.9297c0 8.79395 -7.16895 15.9307 -15.9307 15.9307zM143.373 160.139c0 -17.5869 14.3047 -31.8613 31.8604 -31.8613
c17.5547 0 31.8604 14.2744 31.8604 31.8613c0 17.5547 -14.3057 31.8604 -31.8604 31.8604c-17.5557 0 -31.8604 -14.3057 -31.8604 -31.8604zM328.451 54.457c7.10449 5.16113 8.72949 15.1016 3.56836 22.2383c-5.19336 7.16895 -15.1338 8.69824 -22.2393 3.56836
c-32.8477 -23.7998 -76.9434 -23.7363 -109.791 0c-7.10547 5.12988 -17.0771 3.53711 -22.2393 -3.56836c-5.16113 -7.10449 -3.56836 -17.0771 3.56836 -22.2383c21.9844 -15.8984 47.791 -23.8643 73.5664 -23.8643s51.582 7.96582 73.5664 23.8643zM334.536 128.277
c17.5869 0 31.8613 14.2744 31.8613 31.8613c0 17.5547 -14.2744 31.8604 -31.8613 31.8604s-31.8604 -14.3057 -31.8604 -31.8604c0 -17.5869 14.2734 -31.8613 31.8604 -31.8613z" />
    <glyph glyph-name="097-pencil" unicode="&#xf160;" 
d="M468.505 161c7.1416 -7.96777 11.4951 -18.4834 11.4951 -30s-4.35254 -22.0322 -11.4951 -30c7.1416 -7.96777 11.4951 -18.4834 11.4951 -30s-4.35254 -22.0322 -11.4951 -30c7.1416 -7.96777 11.4951 -18.4834 11.4951 -30c0 -24.8135 -20.1865 -45 -45 -45h-17.5801
c-6.19238 -17.459 -22.8652 -30 -42.4199 -30h-30c-20.0576 0 -37.0879 13.1943 -42.8799 31.3564c-43.5146 3.07324 -86.542 11.4023 -128.072 24.8379c-7.80371 2.52441 -15.5107 3.80469 -22.9062 3.80469h-136.142c-8.28418 0 -15 6.71582 -15 15v240
c0 8.28418 6.71582 15 15 15h60c19.5547 0 36.2275 -12.541 42.4199 -30h29.4131c9.0127 0 17.7246 2.66699 25.1934 7.71289c43.9209 29.6738 86.0127 46.4863 127.974 51.0244v47.1484v0.0800781v0.0341797c0 0.03125 0.00488281 0.0605469 0.00488281 0.0917969
c0.00976562 2.03516 0.464844 4.20508 1.40918 6.22949c0.0507812 0.108398 0.0869141 0.22168 0.139648 0.329102l45 91c2.5293 5.11328 7.74023 8.35059 13.4463 8.35059s10.917 -3.2373 13.4463 -8.35059l45 -91c0.925781 -1.87402 1.5293 -4.20703 1.54688 -6.52637
c0 -0.0410156 0.00683594 -0.0820312 0.00683594 -0.123047v-0.0458984v-0.0595703v-105.895h15c24.8135 0 45 -20.1865 45 -45c0 -11.5166 -4.35254 -22.0322 -11.4951 -30zM90 26v195c0 8.27148 -6.72852 15 -15 15h-45v-210h60zM360 399.161l-25.1338 -50.8271
c16.1074 -6.64551 34.1602 -6.64551 50.2676 0zM330 318.159v-22.1592h45c5.25781 0 10.3047 -0.915039 15 -2.58008v24.7393c-9.74414 -3.21484 -19.8711 -4.83496 -30 -4.83496c-10.1299 0 -20.2559 1.62012 -30 4.83496zM255 116c41.3555 0 75 33.6445 75 75v30
c0 8.28418 6.71582 15 15 15s15 -6.71582 15 -15v-90c0 -8.27148 6.72852 -15 15 -15h15v135c0 8.27148 -6.72852 15 -15 15h-51.6299c-43.584 0 -87.5947 -15.4209 -134.549 -47.1445c-12.4473 -8.41016 -26.9678 -12.8555 -41.9883 -12.8555h-26.833v-180h31.1416
c10.5342 0 21.3486 -1.76953 32.1396 -5.26074c37.875 -12.252 77.0654 -20.0156 116.719 -23.1484v98.5518c-13.6475 -6.5 -28.9062 -10.1426 -45 -10.1426c-8.28418 0 -15 6.71582 -15 15s6.71582 15 15 15zM371.495 41c-7.1416 7.96777 -11.4951 18.4834 -11.4951 30
c0 5.85645 1.13574 11.4482 3.17969 16.583c-15.3408 4.18164 -27.4473 16.2881 -31.6152 31.6348c-0.514648 -0.548828 -1.03809 -1.08887 -1.56445 -1.62695v-91.5908h32.5801c1.98145 5.58691 5.03418 10.6699 8.91504 15zM375 -34
c4.13672 0 7.8877 1.68262 10.6035 4.40137c-10.6787 5.12207 -19.0293 14.3379 -23.0234 25.5986h-32.5801v-15c0 -8.27148 6.72852 -15 15 -15h30zM435 -4c8.27148 0 15 6.72852 15 15s-6.72852 15 -15 15h-30c-8.27148 0 -15 -6.72852 -15 -15s6.72852 -15 15 -15h30z
M435 56c8.27148 0 15 6.72852 15 15s-6.72852 15 -15 15h-30c-8.27148 0 -15 -6.72852 -15 -15s6.72852 -15 15 -15h30zM435 116c8.27148 0 15 6.72852 15 15s-6.72852 15 -15 15h-15v-30h15zM435 176c8.27148 0 15 6.72852 15 15s-6.72852 15 -15 15h-15v-30h15z" />
    <glyph glyph-name="075-skype" unicode="&#xf14a;" 
d="M497.28 137.664c9.4082 -18.7197 14.7197 -39.7441 14.7197 -62.0479c0 -77.0879 -63.3916 -139.616 -141.6 -139.616c-24.2246 0 -47.0088 6.01562 -66.9766 16.5762c-14.4961 -2.62402 -29.4395 -4.03223 -44.7354 -4.03223
c-134.849 0 -244.192 107.808 -244.192 240.8c0 16.5762 1.72754 32.7686 4.95996 48.3838c-12.3525 20.7686 -19.4561 44.8643 -19.4561 70.624c0 77.1523 63.3916 139.648 141.632 139.648c27.6797 0 53.5039 -7.87207 75.3281 -21.4082
c13.5996 2.30469 27.5518 3.52051 41.7598 3.52051c134.88 0 244.192 -107.809 244.192 -240.769c0 -17.7275 -1.91992 -35.0078 -5.63184 -51.6797zM383.968 74.2725c11.3281 15.8076 17.0879 33.8877 17.1201 53.6953c0 16.5762 -3.32812 30.8164 -9.91992 42.4326
c-6.5918 11.5195 -15.8398 21.1191 -27.5195 28.6396c-11.5205 7.3916 -25.5361 13.6963 -41.8242 18.7842c-16.0645 5.08789 -34.208 9.79199 -53.9844 13.9521c-15.6475 3.55176 -27.0078 6.33594 -33.792 8.19141c-6.62402 1.79199 -13.248 4.35254 -19.6475 7.52051
c-6.20801 3.07129 -11.1045 6.6875 -14.5605 10.9121c-3.2959 3.93555 -4.89551 8.51172 -4.89551 13.9834c0 8.95996 4.95996 16.5127 15.1357 23.0723c10.5596 6.84766 24.832 10.3037 42.3037 10.3037c18.8799 0 32.5762 -3.07129 40.7998 -9.24805
c8.44824 -6.36816 15.8408 -15.3594 21.9199 -26.752c5.24805 -8.89551 10.0166 -15.1357 14.5928 -19.1357c4.89551 -4.25586 12 -6.46387 21.0234 -6.46387c9.91992 0 18.3682 3.45605 25.0879 10.3359c6.65625 6.78418 10.0166 14.624 10.0166 23.2314
c0 8.92871 -2.5918 18.1768 -7.64844 27.4561c-4.99219 9.2168 -12.9922 18.0166 -23.7441 26.3359c-10.6553 8.22461 -24.2236 14.8809 -40.3193 19.8086c-16.0322 4.92773 -35.2002 7.42383 -56.9922 7.42383c-27.2959 0 -51.3926 -3.74414 -71.6484 -11.1357
c-20.5752 -7.45605 -36.5117 -18.4326 -47.4238 -32.4805c-11.0078 -14.1436 -16.5762 -30.5273 -16.5762 -48.7041c0 -19.0713 5.3125 -35.2959 15.8086 -48.2559c10.3037 -12.7354 24.4473 -22.9121 41.9521 -30.2715c17.0879 -7.2002 38.624 -13.5361 64 -18.8799
c18.624 -3.84082 33.6953 -7.55273 44.7998 -10.9443c10.624 -3.2959 19.3916 -8.06445 26.0479 -14.208c6.30371 -5.85645 9.4082 -13.3438 9.4082 -22.8164c0 -12.0312 -5.88867 -21.8877 -18.0801 -30.0479c-12.416 -8.38379 -28.9922 -12.6396 -49.1846 -12.6396
c-14.6553 0 -26.5918 2.14355 -35.4561 6.24023c-8.7998 4.12793 -15.6797 9.37598 -20.5117 15.6797c-4.95996 6.43164 -9.66406 14.6875 -13.9834 24.4795c-3.87207 8.92871 -8.7041 15.9043 -14.3047 20.6084c-5.8877 4.89648 -13.1201 7.36035 -21.5039 7.36035
c-10.2402 0 -18.8154 -3.10449 -25.5039 -9.34473c-6.75195 -6.23926 -10.1758 -13.8877 -10.1758 -22.6875c0 -14.1445 5.21582 -28.7686 15.6162 -43.4883c10.2715 -14.6562 23.7754 -26.4639 40.1914 -35.2002c22.9766 -12.0312 52.3838 -18.1113 87.4561 -18.1113
c29.248 0 54.8799 4.47949 76.2881 13.2793c21.6641 8.83203 38.3359 21.3125 49.6318 37.0889z" />
    </font>
</defs>
</svg>
